<?xml version="1.0" encoding="UTF-8"?>
<svg id="_图层_2" data-name="图层 2" xmlns="http://www.w3.org/2000/svg" viewBox="0 0 1147.32 1677.14">
  <defs>
    <style>
      .cls-1 {
        letter-spacing: 0em;
      }

      .cls-2 {
        font-family: NovaMono, NovaMono;
        font-size: 18px;
      }

      .cls-2,
      .cls-3,
      .cls-4,
      .cls-5,
      .cls-6 {
        fill: #15181e;
      }

      .cls-3 {
        font-family: LibreFranklinRoman-Regular, 'Libre Franklin';
        font-size: 13px;
      }

      .cls-3,
      .cls-4 {
        font-variation-settings: 'wght'400;
      }

      .cls-7 {
        font-family: Lancelot, Lancelot;
      }

      .cls-7,
      .cls-4 {
        font-size: 17px;
      }

      .cls-4 {
        font-family: Orbitron-Regular, Orbitron;
      }

      .cls-8 {
        fill: #f2e8cf;
        stroke: #f2e8cf;
        stroke-miterlimit: 10;
        stroke-width: 15px;
      }

      .cls-9 {
        letter-spacing: -.03em;
      }

      .cls-10 {
        letter-spacing: 0em;
      }

      .cls-5 {
        font-family: PatuaOne-Regular, 'Patua One';
        font-size: 20px;
      }

      .cls-6 {
        stroke-width: 0px;
      }
    </style>
  </defs>
  <g id="collegamenti">
    <g>
      <circle class="cls-8" cx="253.16" cy="316.88" r="29.04" />
      <circle class="cls-8" cx="1110.78" cy="251.88" r="29.04" />
      <circle class="cls-8" cx="766.1" cy="796.73" r="29.04" />
      <text class="cls-3" transform="translate(740.81 793.05)">
        <tspan x="0" y="0">Timothy</tspan>
        <tspan x="-6.57" y="15.6">Cavendish</tspan>
      </text>
      <g>
        <circle class="cls-8" cx="36.54" cy="36.54" r="29.04" />
        <g>
          <path class="cls-6"
            d="M22.45,29.18h-1.1s-.05,0-.12,0-.14-.01-.23-.02-.16-.02-.23-.02-.12,0-.14,0c-.1,0-.28,0-.52,0s-.5,0-.78,0-.55,0-.79,0-.41,0-.5,0c-.05-.05-.1-.1-.14-.15s-.06-.12-.06-.19c0-.06,0-.1.02-.12s.04-.07.07-.14c0-.02.01-.06.03-.11s.05-.08.08-.1c.01,0,.04,0,.08,0s.09-.01.13-.02.09-.01.13-.02.06-.01.07-.02c.02,0,.05-.02.09-.05s.08-.06.13-.09.09-.06.13-.09.07-.04.08-.05c0,0,.03-.01.06-.02s.08-.02.12-.02.09-.01.13-.01.07,0,.08,0,.03,0,.04-.03c0,0,.01-.02.02-.03v-.34c0-.18-.02-.35-.05-.53s-.07-.35-.12-.52-.1-.34-.15-.51-.1-.33-.14-.48c0-.02-.02-.06-.03-.13s-.03-.14-.05-.21-.04-.15-.05-.21-.02-.11-.03-.13c0-.01,0-.04-.02-.07s-.03-.07-.04-.1-.03-.07-.04-.1-.02-.05-.02-.06c-.02-.06-.04-.12-.06-.19s-.04-.13-.07-.19-.07-.11-.11-.15-.1-.07-.16-.08c-.03,0-.06-.01-.11-.02s-.1-.02-.15-.02-.1-.01-.14-.01-.07,0-.09,0l-.06.04s-.04.02-.06.03c-.03,0-.06.02-.11.03s-.08.02-.11.02h-.54c-.24,0-.49,0-.74.01s-.48.03-.69.06c-.01,0-.04.01-.08.04-.02.01-.04.02-.06.03-.03,0-.09.01-.16.02s-.16.01-.24.02-.17.01-.25.02-.13,0-.16,0l-.07.07-.26,1.48c-.09.1-.16.21-.2.33s-.07.23-.08.36-.02.25-.02.37-.02.25-.04.37c0,.03-.02.08-.07.15s-.07.11-.08.12l.08.16s.03.04.06.09.05.08.05.09c.02,0,.06.02.11.03s.11.03.17.04.11.03.17.05.09.03.11.03c.1.03.23.06.38.09s.29.08.42.14.25.14.34.24.14.22.14.37v.17s-.02.03-.04.06-.05.06-.08.09-.06.06-.08.08-.05.04-.07.04c-.08,0-.21,0-.39,0s-.37.01-.57.02-.39.02-.57.02-.31,0-.39,0h-2.71s-.03-.04-.04-.07-.03-.06-.05-.08c-.01-.09-.04-.2-.07-.33s-.05-.25-.05-.37c0-.09.05-.16.15-.2s.19-.08.26-.1c0,0,.03,0,.07,0s.08,0,.13-.01.09-.01.14-.02.07-.01.08-.02c.07-.03.15-.07.25-.12s.2-.1.3-.15.18-.09.26-.13.12-.06.12-.07l.1-.16v-.95c.07,0,.12-.06.17-.15s.09-.2.13-.32.08-.23.11-.35.07-.2.1-.25c0,0,.02-.02.05-.05s.06-.05.09-.08.06-.06.09-.08.04-.05.04-.06c0,0,.01-.04.02-.09s.01-.11.02-.17.01-.12.02-.18,0-.09,0-.1c.01-.03.03-.08.06-.15s.06-.12.09-.15l.12-1.13c.09-.13.15-.27.18-.43s.06-.31.08-.46c.02-.02.04-.06.05-.11s.02-.08.02-.1c.01-.01.04-.04.08-.09s.07-.08.08-.09c0-.02.01-.06.02-.11s.02-.12.03-.18.02-.13.03-.19.02-.11.02-.14v-.27s.02-.06.05-.11.06-.11.09-.17.06-.11.09-.17.05-.08.05-.1c0,0,.02-.03.03-.07s.03-.09.04-.13.02-.09.03-.13.01-.07.01-.08c.01-.02.03-.06.05-.11s.05-.11.07-.17.04-.12.06-.17.03-.09.04-.11c.07-.19.13-.4.17-.62s.1-.45.17-.65c.06-.17.13-.33.23-.49s.14-.33.15-.53c.01-.01.02-.05.02-.1s0-.11,0-.18,0-.11,0-.13c0-.01.03-.05.06-.1s.07-.11.1-.17.07-.11.09-.17.04-.09.04-.11v-.53s.03-.07.06-.14.06-.12.08-.14c.03-.01.05-.03.08-.05.02-.01.04-.03.06-.04s.04-.03.05-.04c.1-.07.2-.13.28-.19s.16-.11.24-.16.17-.08.26-.11.21-.04.34-.04c.03,0,.09,0,.19,0s.15,0,.19,0c.06.05.12.11.2.18s.12.14.13.22c.08.27.13.53.15.79s.07.51.14.76c0,.02,0,.05.02.09,0,.02.02.04.03.05.01.03.03.07.04.12s.02.08.02.09v.34c.03.14.08.28.14.42s.1.27.13.4c0,.02.02.07.03.15s.03.16.05.25.03.18.04.26.01.13.01.15c0,.01.02.04.03.08s.03.08.04.13.03.09.04.13.03.06.04.06c.01.07.04.17.07.32s.08.31.12.47.08.32.12.47.07.25.08.31c.22.37.38.76.48,1.16s.19.81.26,1.23c0,.01.02.04.04.09s.03.08.04.09c.11.28.21.55.31.83s.2.54.31.82c0,.02-.01.05-.02.1s-.01.09-.02.14-.01.09-.02.14-.02.07-.02.09v.14s.02.04.05.08.06.08.09.13.06.09.09.13.05.07.05.08c.08.14.15.29.19.42s.08.28.13.41.1.26.17.38.18.23.33.34c0,.01.01.03.03.04s.03.03.03.04c.03,0,.08.03.15.07s.11.06.12.06c.02,0,.07.02.16.03s.18.03.28.04.2.02.28.03.14.01.17.01c.03.01.06.03.11.06s.09.05.14.08.08.06.11.09.04.07.04.11c0,.02-.01.07-.03.16s-.05.18-.09.28-.07.19-.11.26-.07.12-.1.13h-.34c-.05,0-.1,0-.14,0s-.09-.03-.14-.06ZM15.14,22.16v.02s.02.07.03.12.02.08.02.1c.05.08.1.17.15.25s.11.15.18.21.13.11.21.15.17.06.28.06c.12,0,.24-.02.34-.07s.22-.07.34-.07c.12,0,.23.01.34.04s.22.04.34.04h.07s.06-.02.1-.04.08-.04.13-.06.08-.04.12-.06.06-.03.07-.03c.03-.03.05-.09.06-.19s0-.16,0-.21c0-.16-.04-.33-.11-.49s-.13-.32-.17-.47c-.09-.29-.18-.59-.27-.88s-.18-.59-.27-.88c0-.02-.02-.06-.04-.13s-.05-.15-.08-.23-.06-.17-.08-.26-.05-.15-.06-.19c-.01-.02-.03-.06-.05-.11s-.04-.11-.06-.17-.04-.11-.06-.17-.03-.09-.04-.11c-.03-.07-.04-.11-.05-.13s-.04-.02-.09-.02c-.06,0-.11.02-.16.07s-.09.11-.12.17-.07.13-.09.21-.04.13-.04.18v.2s-.01.04-.03.08-.05.08-.07.12-.05.08-.07.12-.04.06-.04.07c0,.02,0,.06,0,.12s0,.13-.01.2-.01.14-.02.2,0,.09,0,.11c-.03.14-.09.27-.18.41s-.14.27-.17.4c0,.01,0,.04,0,.09s-.01.1-.02.15-.01.11-.02.15-.01.08-.02.09c0,0-.02.03-.04.07s-.04.08-.06.13-.05.09-.07.14-.04.07-.04.08c0,.05-.01.1-.02.16,0,.05-.01.09-.02.14s0,.08,0,.12v.03Z" />
          <path class="cls-6"
            d="M23.97,25.22v-.17s0-.06.02-.13.03-.14.04-.21.03-.14.04-.21.02-.1.02-.12c0-.02.01-.07.02-.14s.02-.15.02-.24.01-.16.02-.24,0-.12,0-.14c0,0,0-.03.03-.06s.04-.07.06-.11.05-.08.07-.11.04-.06.04-.07c.01-.01.04-.06.07-.13s.06-.12.07-.14c.08-.14.15-.28.22-.41s.14-.25.21-.36.15-.22.23-.33.19-.21.31-.32c0-.01.04-.04.09-.07s.08-.06.1-.07c0,0,0-.02.03-.04s.04-.05.07-.08.05-.06.07-.08.03-.04.03-.05c.02-.01.07-.04.15-.07s.13-.06.15-.07c.01,0,.03-.02.06-.07s.05-.07.06-.07c.03-.02.08-.05.15-.08s.11-.06.12-.08c.03,0,.09,0,.18,0s.18,0,.27,0c.1,0,.16,0,.18-.02.08,0,.14-.01.19-.01s.1,0,.15-.01.09-.01.11-.02c.03,0,.09-.01.19-.03s.14-.03.16-.03h1.66c.08-.07.15-.15.2-.25s.09-.21.11-.32.04-.23.05-.35.01-.22.01-.31v-2.03c-.03-.07-.05-.13-.06-.21s-.01-.14-.02-.21-.02-.14-.03-.21-.04-.13-.08-.19c-.01-.03-.05-.07-.1-.12s-.08-.08-.09-.08c-.03-.01-.08-.03-.16-.04s-.12-.03-.14-.04c0,0-.03-.02-.06-.05s-.07-.05-.11-.08-.08-.06-.11-.08-.05-.04-.06-.04c-.01-.01-.06-.03-.14-.04s-.12-.03-.14-.05c-.09-.03-.18-.08-.28-.15s-.14-.16-.14-.27c0-.12.03-.2.1-.26s.14-.09.23-.12.19-.04.29-.04.19-.01.27-.02c.02-.01.07-.03.14-.04s.12-.03.13-.04c.02,0,.06,0,.13,0s.13,0,.21-.01.14-.01.21-.02.11-.01.13-.02c.14-.02.27-.06.4-.12s.26-.09.39-.09c.18,0,.33.06.46.18s.22.26.26.42v.51c0,.22-.01.43-.04.63s-.04.41-.04.63v.28c0,.06,0,.12,0,.19,0,.02.01.07.03.14s.03.12.03.13c0,0,0,.02,0,.05s-.01.06-.02.09-.02.06-.02.08,0,.04,0,.05v.49c0,.05,0,.15-.01.28s-.02.29-.03.44-.02.31-.03.45-.02.24-.02.29c-.03.25-.05.51-.06.77s-.02.52-.02.77c0,.28,0,.55.02.83s.04.54.06.83c0,.43,0,.86,0,1.29s0,.86,0,1.29c-.05.17-.09.34-.11.51s-.03.34-.03.51c0,.14.04.25.13.34s.18.18.27.25c.22.14.45.23.67.27.08.02.16.03.23.03s.15.01.22.03.13.04.18.08.09.1.13.19c-.09.12-.21.23-.35.35s-.28.2-.41.26c-.1.07-.21.11-.31.15s-.2.06-.31.08-.21.04-.32.05-.22.03-.35.06l-.06.04s-.06.03-.08.03c-.02,0-.04,0-.05,0,0,0-.02,0-.03,0h-.02s-.03,0-.05,0-.04,0-.05,0c-.07-.02-.13-.04-.17-.05s-.09-.03-.13-.04-.08-.02-.1-.03c-.08-.03-.14-.08-.18-.16s-.08-.14-.11-.21-.07-.13-.12-.18-.11-.08-.21-.08c-.05,0-.08,0-.1,0s-.05.03-.09.06c-.19.13-.37.25-.54.36s-.34.2-.52.28-.35.14-.55.19-.4.07-.63.07c-.1,0-.21-.01-.32-.04s-.22-.07-.32-.11-.21-.09-.31-.13-.19-.08-.28-.11c-.17-.07-.35-.18-.53-.33s-.36-.33-.53-.52-.32-.38-.45-.58-.22-.38-.26-.53v-.28c-.02-.11-.05-.23-.1-.35s-.09-.25-.13-.38-.08-.25-.12-.38-.05-.24-.05-.35ZM25.73,25.29c0,.1.01.22.03.34s.05.25.09.38.08.25.13.37.1.22.16.3c.03.04.06.07.1.1l.12.09s.08.06.11.09.06.07.07.12v.22s.04.03.11.08.14.1.22.16.15.11.22.15.11.07.12.07c.02,0,.06,0,.13.01s.14.02.21.02.15.01.21.02.1,0,.12,0c.03,0,.08.03.15.07s.12.07.14.08h.12c.18,0,.36-.05.54-.15s.35-.19.48-.27l.07-.07s.03-.05.06-.08.05-.07.08-.1.06-.07.08-.1.04-.05.05-.06c.02-.02.05-.06.09-.11.02-.03.04-.05.05-.08v-.56s0-.08,0-.15.01-.16.02-.24.02-.17.02-.25,0-.14,0-.18c0,0,0-.03,0-.07s.01-.08.02-.12.01-.08.02-.12.02-.06.02-.07c0-.06,0-.17,0-.32s.01-.32.01-.49,0-.34.01-.49,0-.27,0-.33c.03-.08.05-.16.06-.22s0-.13,0-.22v-.17s0-.02-.02-.05-.03-.05-.04-.08-.03-.06-.04-.09-.02-.05-.02-.05c-.04-.08-.07-.16-.09-.22s-.04-.13-.07-.19-.06-.11-.1-.17-.09-.11-.17-.17c-.04-.02-.11-.05-.21-.08s-.2-.07-.31-.1-.21-.07-.31-.1-.16-.05-.2-.06c-.02,0-.05-.02-.1-.03s-.1-.03-.15-.04-.09-.03-.14-.04-.07-.02-.08-.03h-.07c-.13,0-.25.01-.35.04s-.2.06-.29.1-.18.09-.27.14-.19.1-.3.14c-.03,0-.06.01-.09.03s-.05.03-.06.03c-.08.07-.15.16-.23.28s-.13.22-.18.33c0,.04,0,.1,0,.2s-.01.19-.01.29,0,.2-.01.29,0,.16,0,.2c-.01.03-.02.08-.03.14s-.01.12-.02.19-.01.12-.01.18,0,.09,0,.11c-.01.01-.03.04-.04.09s-.03.08-.04.09c0,.01,0,.03-.03.06s-.04.06-.06.09-.04.06-.06.08-.03.04-.03.04c-.04.1-.06.21-.07.35s0,.26,0,.37Z" />
          <path class="cls-6"
            d="M37.87,28.07c-.06,0-.11.02-.17.05s-.1.07-.15.12-.09.09-.14.14-.08.09-.12.12c0,0-.03,0-.06.02s-.06.03-.09.05c-.12.05-.23.1-.34.16s-.22.12-.33.18-.23.1-.35.14-.24.06-.37.06h-.3s-.05-.03-.1-.04-.09-.03-.1-.04c0,0-.03,0-.06,0s-.07,0-.11-.01-.08-.01-.11-.02-.06-.02-.06-.03c-.03,0-.08-.02-.16-.03s-.11-.02-.13-.02c-.08-.05-.16-.14-.25-.26s-.18-.26-.25-.41-.14-.3-.2-.45-.08-.28-.08-.38c0-.15.03-.3.08-.44s.09-.28.12-.42c.2-.29.39-.55.58-.76s.43-.41.73-.59c0,0,.02-.02.05-.03s.07-.03.1-.05.07-.03.11-.04.06-.02.07-.03c.07-.03.13-.08.21-.13s.14-.11.21-.17.14-.1.21-.15.12-.07.18-.08c.01,0,.05-.01.1-.02s.11-.01.18-.02.12-.01.17-.02.09-.01.11-.02c0,0,.04-.02.09-.07s.08-.07.1-.07c.02,0,.07-.03.15-.07s.17-.08.26-.13.18-.09.26-.13.13-.07.15-.08c.07-.04.12-.09.16-.17s.07-.15.08-.22.03-.16.03-.23,0-.15,0-.21c0-.31-.04-.6-.12-.85s-.23-.5-.43-.75c-.01-.03-.05-.07-.1-.12s-.09-.07-.1-.07h-.59c-.08.07-.17.13-.27.19s-.18.12-.21.21c-.08.14-.16.3-.24.46s-.14.33-.17.49c-.02.02-.06.05-.12.09s-.12.08-.18.12-.12.08-.18.11-.1.06-.13.07c0,0-.03,0-.06,0s-.07,0-.11,0-.09,0-.13,0-.08,0-.11,0c-.01,0-.04,0-.08,0s-.08,0-.13,0-.09,0-.13,0-.07,0-.09,0c-.07-.04-.13-.09-.21-.14s-.14-.11-.2-.18-.11-.13-.15-.21-.06-.16-.06-.25c0-.1.01-.18.03-.25s.05-.14.09-.21.08-.13.13-.19.11-.13.17-.2c.05-.07.09-.13.12-.18s.08-.1.15-.15c.04-.03.08-.05.11-.06s.07-.02.1-.02.07,0,.11-.01.09-.02.15-.04c.03,0,.08-.03.18-.08s.19-.1.3-.16.21-.11.3-.16.15-.08.18-.09c.01,0,.04-.01.08-.01s.08,0,.12-.01.08-.01.12-.01.07,0,.08,0c.18-.05.36-.11.52-.18s.34-.11.53-.11h.12c.27.05.56.11.87.18s.58.2.82.38c.02.02.05.05.09.08s.08.08.13.12.08.09.11.12.05.06.06.08c0,0,.01.03.02.07s.02.08.02.12.01.08.01.13,0,.07,0,.07c0,.02.01.06.03.12s.05.12.07.2.05.14.07.2.03.1.03.12c0,.22.01.41.01.56s0,.3.01.46.01.28.02.38v.09s-.02.04-.03.06c-.01.04-.02.07-.02.08-.01.01-.03.05-.04.1s-.02.09-.02.09c0,.02-.01.08-.02.18s-.01.21-.02.32-.01.22-.02.32,0,.16,0,.19c0,.02-.01.06-.03.11s-.04.08-.04.1c-.02.12-.03.22-.04.31s-.01.17-.02.26,0,.17,0,.25v.8s.04.09.07.18.06.14.07.17c.05.11.12.19.22.24s.21.08.34.11.26.04.39.05.25.03.36.06.2.08.27.15.11.18.11.31c0,.1-.05.23-.15.37s-.22.28-.37.41-.29.24-.45.33-.29.14-.4.14h-.19s-.05-.01-.11-.03-.1-.03-.1-.03c-.02,0-.06-.01-.13-.02s-.14-.01-.21-.01-.15,0-.21-.01-.11-.01-.13-.02c-.1-.04-.21-.12-.33-.23s-.23-.23-.35-.35-.22-.22-.33-.32-.2-.14-.29-.14ZM35.79,26.63c0,.14.05.24.14.32s.21.13.34.17.27.07.41.08.26.04.35.06h0c.13,0,.27-.04.41-.12s.24-.17.3-.26c.02-.03.05-.08.08-.14s.06-.12.09-.18.06-.11.08-.16.03-.08.03-.09v-1.29l-.06-.14s-.04,0-.08,0-.07,0-.09,0c-.18,0-.34.04-.49.13s-.3.18-.44.29c-.03.02-.08.05-.14.09s-.12.09-.17.13-.1.09-.15.12-.07.05-.07.05c0,0-.02.03-.05.06s-.05.07-.08.11-.06.09-.08.13-.05.08-.07.11c-.01.01-.02.04-.03.07s-.01.06-.01.07c-.01,0-.03.02-.05.05s-.05.05-.07.08-.04.06-.06.09-.03.05-.04.06v.09Z" />
          <path class="cls-6"
            d="M51.83,28.58l.04-.06s.03-.05.04-.09c0-.01.02-.04.06-.09s.07-.08.08-.09c.05-.07.11-.11.2-.14s.18-.05.27-.07.18-.04.25-.07.12-.07.15-.13c.07-.14.12-.29.14-.44s.07-.3.15-.43v-2.39l.19-.34v-.95s-.02-.02-.03-.04c-.03-.03-.04-.05-.04-.08-.01-.01-.04-.05-.07-.11s-.05-.1-.05-.1c-.03-.05-.06-.11-.07-.2s-.04-.16-.09-.21c-.02-.02-.06-.06-.11-.11s-.11-.11-.17-.17-.11-.11-.17-.16-.09-.08-.11-.1c-.05-.03-.11-.05-.18-.06s-.14,0-.21,0h-.67s-.06.01-.12.03-.09.03-.11.03c-.21.07-.37.12-.5.17s-.22.11-.3.18-.14.17-.19.3-.09.3-.15.52v1.69s0,.05,0,.11-.01.12-.02.19-.01.13-.02.19,0,.1,0,.12v.16s0,.06,0,.13.01.16.02.25.01.18.02.26,0,.13,0,.15c0,.09,0,.2,0,.32s0,.25,0,.38c0,.14,0,.27.03.4s.06.24.11.35c.03.06.07.1.12.13s.1.05.16.07.11.04.17.06.11.05.16.09c.07.05.14.11.22.2s.11.18.11.27v.05s-.03.07-.07.12-.08.08-.11.11c-.02.02-.05.04-.09.06s-.08.04-.11.06c-.05.03-.09.05-.14.08h-2.38s-.04,0-.08-.02-.08-.03-.12-.04-.08-.03-.12-.04-.07-.03-.09-.03c-.09-.06-.16-.13-.2-.21s-.06-.17-.06-.26c0-.08.02-.16.07-.23s.1-.13.17-.19.13-.12.2-.18.12-.13.17-.22c.01-.01.03-.05.04-.1s.02-.08.02-.09v-.36s0-.04.02-.08.03-.08.04-.12.03-.08.05-.12.03-.07.03-.08c0-.01,0-.06,0-.15s0-.17,0-.24,0-.12,0-.14c0-.15.02-.29.06-.42s.06-.27.06-.41c0-.06,0-.11,0-.16s-.03-.1-.06-.18v-1.55c-.01-.15-.03-.31-.04-.47s-.07-.31-.16-.42c-.2-.23-.4-.4-.62-.51s-.48-.17-.79-.17h-.28s-.05.01-.1.04-.1.05-.16.08-.12.06-.17.08-.1.05-.12.06c-.13.09-.21.2-.25.31s-.08.24-.14.37c0,.01-.02.04-.04.08s-.05.08-.07.13-.05.09-.07.13-.03.06-.03.07c0,.02-.01.07-.01.15s0,.17-.01.26-.01.18-.02.26-.01.13-.02.15c0,.01,0,.06-.03.14s-.03.12-.03.14v.25c0,.25,0,.51.01.79s.02.54.04.79c.01.15.02.28.02.4s.02.25.05.39c0,.02,0,.06.03.11s.04.11.07.18.05.12.07.18.04.09.04.11c0,.01.01.03.02.05.01.04.02.06.03.07.03.04.07.1.12.17s.09.11.1.11c0,0,.02.01.06.02s.08.02.13.03.09.02.13.03.07.02.08.02c.01.02.04.05.08.08s.08.08.12.12.08.09.12.13.06.07.07.09c0,.01,0,.04.01.07s.01.06.01.07c0,.09-.04.18-.11.26s-.16.13-.26.13l-1.21.05-.19.02h-1.44c-.06.03-.1.06-.13.07s-.07.02-.12.02h-.09c-.06-.02-.13-.04-.21-.07s-.17-.06-.24-.1-.14-.09-.2-.14-.08-.12-.08-.2c0-.1.02-.2.06-.29s.09-.19.15-.3c.04-.07.1-.12.18-.16s.15-.07.22-.1c.05-.03.09-.07.14-.12s.09-.12.13-.19.07-.14.1-.21.04-.13.05-.18c0-.07.02-.18.04-.34s.04-.33.06-.51.04-.35.06-.51.03-.27.04-.34v-.67s0-.02.02-.05.03-.05.04-.08.03-.06.04-.08.02-.05.02-.06v-.12c0-.15,0-.3-.03-.46s-.03-.32-.03-.48c0-.06,0-.12.03-.18s.03-.12.03-.18v-.07s0-.05-.02-.09-.03-.08-.04-.12-.03-.08-.04-.12-.02-.07-.03-.09c-.03-.08-.11-.14-.23-.16s-.25-.05-.38-.07-.25-.07-.35-.13-.15-.18-.15-.35c0-.06.02-.11.05-.15s.07-.08.11-.11.09-.06.14-.08.09-.05.12-.08c.01-.01.04-.04.09-.09s.09-.1.15-.16.1-.11.15-.16.08-.08.1-.08c0,0,.04-.01.09-.02s.11-.02.18-.04.12-.03.18-.04.09-.02.09-.03c.01,0,.04-.03.07-.06l.11-.11s.07-.08.1-.11.05-.06.06-.07c.03-.03.08-.05.14-.08s.12-.05.18-.06.12-.03.18-.04.11-.01.15-.01h.03c.08.02.14.03.19.04s.08.03.1.05.04.06.04.1,0,.1,0,.18c0,.11,0,.22-.03.32s-.03.21-.03.33c0,.23.11.34.34.34h.06s.05,0,.06-.02c.02-.01.05-.04.1-.07s.1-.08.15-.12.1-.09.14-.13.07-.07.09-.08l.46-.46c.06-.06.13-.09.21-.11s.15-.03.21-.05c.02,0,.06-.01.11-.03s.11-.05.17-.08.11-.06.16-.09.08-.05.1-.06h1.09c.05,0,.1.02.15.05s.09.07.14.12.08.09.13.14.08.09.11.11c0,.01.05.03.13.06s.12.05.13.06c.08.04.14.1.19.18s.09.15.14.22.1.13.16.19.14.08.25.08c.08,0,.16-.01.22-.04s.11-.07.16-.11.08-.1.12-.15.08-.11.13-.15c.03-.02.07-.05.12-.1s.11-.09.17-.15.11-.1.16-.15.08-.08.1-.1c.03-.02.07-.04.14-.06s.13-.04.21-.05.14-.03.21-.04.13-.02.17-.03c.02,0,.06-.01.12-.02s.13-.02.2-.02.14-.01.21-.02.11,0,.15,0h.16c.21,0,.4.02.57.06s.34.11.51.2c0,0,.03.02.07.04s.08.04.13.06.09.04.14.06.07.03.08.04c0,0,.02.03.04.06s.05.07.07.12.05.09.08.13.05.08.06.1c0,.02.02.05.04.09s.04.08.06.12.04.08.06.12.03.06.04.07c0,.02.02.07.04.14s.05.16.08.25.06.18.09.27.05.16.07.21c.03.1.04.18.04.21s0,.1,0,.18v.1s0,.04-.02.08-.03.08-.04.13-.03.09-.04.13-.02.07-.02.08v.79s-.01.08-.03.15-.04.12-.04.13v.68c-.01.27-.05.54-.1.8s-.08.53-.08.81c0,.17,0,.34.02.53s.07.35.16.52c.07.1.16.17.28.23s.25.11.37.16.22.12.31.2.13.19.13.33v.1s-.05.04-.1.09-.09.08-.13.09c-.02.02-.05.04-.09.06s-.08.05-.13.07-.1.06-.16.09h-2.93c-.08,0-.17-.02-.27-.05s-.18-.08-.26-.14-.15-.13-.21-.21-.08-.18-.08-.28Z" />
          <path class="cls-6"
            d="M11.19,52.64c0-.09.04-.19.13-.3s.19-.16.32-.16c.05,0,.11,0,.19,0s.15,0,.22,0c.2,0,.33,0,.41,0s.12,0,.13,0h.11c.08,0,.17,0,.27,0s.19-.02.27-.04.17-.05.23-.09.11-.09.13-.17v-.49c0-.29,0-.56.01-.83s.03-.53.05-.8c.01-.07.03-.13.04-.19s.03-.14.06-.23c0-.02,0-.07,0-.15,0-.14,0-.27,0-.37s.01-.24.02-.42c0-.03,0-.05,0-.07s.01-.04.02-.05c0-.13,0-.26,0-.39s.02-.26.03-.39c-.01-.03-.02-.09-.03-.17s-.02-.15-.03-.2c0-.03-.01-.07-.02-.14s-.01-.13-.02-.2-.01-.12-.02-.18,0-.08,0-.1v-1.08s-.02-.05-.03-.12-.01-.14-.01-.21c0-.07.01-.16.01-.27s0-.23.01-.35.01-.21.01-.3,0-.13,0-.14c0-.01,0-.04,0-.07s.02-.06.03-.09c0-.03.01-.07.02-.1s0-.06,0-.07c0-.05,0-.11-.02-.17s-.03-.12-.05-.18c-.03-.11-.05-.22-.05-.33v-.29c0-.1,0-.2.02-.29,0-.09.01-.19.02-.29s0-.2,0-.29c0-.07,0-.16,0-.26s-.01-.21-.02-.32c-.01-.1-.02-.2-.02-.28v-.21c-.03-.08-.09-.14-.18-.19s-.18-.08-.29-.11-.21-.05-.32-.06-.19-.01-.26-.01c-.03,0-.07,0-.11.01s-.08.02-.11.03c-.05.01-.09.02-.12.03s-.08,0-.13,0c-.08,0-.17,0-.28-.02s-.22-.04-.32-.08-.19-.09-.25-.16-.1-.15-.1-.24c0-.08,0-.14,0-.19s.04-.08.09-.09c.05-.01.12-.03.22-.05s.2-.04.28-.04c.06,0,.17.01.33.02s.34.02.53.03c.18.01.35.02.52.02s.29,0,.36,0c.09.03.18.05.26.06s.21,0,.38,0c.03,0,.06-.01.09-.02l.15-.03s.04-.02.05-.02h1.22s.03,0,.06,0,.08-.01.12-.02c.03-.01.07-.02.1-.03s.06-.01.09-.02h2.97s.12,0,.26,0,.29.02.43.04c.12.02.21.03.29.03.18,0,.35,0,.52-.03.09-.01.18-.02.26-.03s.16-.01.25-.01c.18,0,.33.01.47.03s.21.04.21.04c.02,0,.06,0,.12,0s.13.01.2.02.14.01.2.02.09.01.11.02c.11.03.2.1.26.21s.1.21.11.3c.03.15.05.28.06.38s0,.22,0,.35v.5c0,.13,0,.24,0,.33s-.01.16-.02.21-.01.11-.02.16c-.01.11-.03.22-.04.32s-.02.16-.02.17v.27c0,.06,0,.12-.02.18s-.04.11-.08.17c-.02,0-.05,0-.1,0h-.1c-.12,0-.24-.06-.38-.19s-.26-.27-.39-.43-.24-.33-.34-.5-.17-.29-.22-.39c-.01-.03-.04-.09-.07-.17s-.07-.16-.12-.25c-.03-.08-.07-.16-.11-.26s-.07-.15-.09-.16c-.03-.05-.09-.12-.17-.19s-.16-.11-.25-.11h-1.69c-.2-.07-.4-.11-.62-.12s-.45-.02-.67-.03c-.12,0-.23,0-.35,0s-.23-.01-.34-.02c-.06,0-.11,0-.17-.02s-.1-.03-.16-.04c-.05-.02-.11-.04-.17-.06s-.12-.03-.18-.03c-.05,0-.11.03-.16.1s-.1.12-.13.18c-.03.03-.05.06-.05.08.01.07.02.19.02.35v1.01c0,.16,0,.27-.02.33,0,.13-.02.24-.05.32-.01.06-.03.12-.04.18s-.02.14-.02.23c.01.05.03.11.04.18s.03.13.05.19c.03.12.06.24.08.36s.03.26.03.41c0,.08,0,.16,0,.24s-.02.17-.03.26l-.05.5v.34l.05.09s.05.01.15.02.18,0,.24,0c.03.01.1.02.19.02h.63c.1,0,.17,0,.21-.02,0,0,.01,0,.02,0s.02,0,.03,0c.05.03.1.05.15.06s.1,0,.16,0c.05,0,.1,0,.15,0s.1-.02.15-.03c.05,0,.1-.02.14-.03s.11-.02.2-.02c.03,0,.07.01.1.02s.06.01.09.02.05,0,.07,0c.05.01.09.02.13.03s.08,0,.12,0c.08,0,.15-.02.21-.07s.11-.1.16-.17.08-.14.1-.22.05-.16.06-.23c0-.03,0-.08,0-.15s0-.15.01-.24.01-.16.02-.23.02-.11.03-.12c.03-.09.06-.16.08-.21s.03-.06.03-.04v-.09c.01-.06.03-.13.04-.21s.06-.13.14-.16c0,0,.02-.02.05-.03s.06-.03.1-.04.08-.02.11-.03.06-.01.08-.01c.13,0,.24.04.32.13s.13.16.16.22v2.44c0,.07,0,.14.02.21,0,.08.01.15.02.21s0,.11,0,.13c0,.04,0,.12-.03.25s-.04.27-.07.42c-.03.14-.06.27-.07.39s-.02.19-.02.21c-.02.07-.03.15-.03.23-.01.09-.03.19-.04.28s-.04.19-.07.26-.08.14-.15.19-.16.07-.27.07c-.1,0-.19-.03-.25-.08s-.11-.12-.15-.21-.06-.17-.07-.27-.02-.19-.02-.28c0-.02,0-.04,0-.07s0-.05,0-.06c-.03-.12-.06-.26-.09-.41s-.08-.29-.14-.42-.14-.25-.23-.34-.22-.15-.37-.17l-.37-.04c-.11-.01-.23-.02-.36-.02s-.22-.01-.29-.02c-.11,0-.21,0-.3,0s-.18,0-.25,0h-.18s-.08,0-.09-.02c-.05,0-.08,0-.11-.02-.07-.02-.12-.03-.14-.03h-.17c-.07,0-.13,0-.17.03s-.08.04-.11.07c-.01.01-.03.02-.04.03s-.03.02-.05.03c-.03.01-.05.02-.07.03h-.28s0,.09,0,.14v.13s0,.06,0,.07-.01.04-.02.06c-.01.05-.03.09-.05.14s-.03.09-.03.11c0,.01,0,.04,0,.08s.02.08.03.13c.01.03.02.07.02.1,0,.02.01.05.02.1s.01.1.01.16,0,.11.01.16,0,.09,0,.12c.01.01.02.03.02.04v.06s.07.04.07.05c.03.09.06.19.08.29s.04.21.05.32c0,.05.01.14.01.27s0,.29.01.44.01.31.01.46,0,.25,0,.32v1.01c.01.13.06.23.13.3s.17.12.27.16.22.06.34.06.23,0,.34,0h.33s.12-.02.26-.03.37-.01.68-.01c.03,0,.06,0,.09,0s.07,0,.11,0c.11-.01.23-.02.36-.03s.21-.02.24-.03c.01,0,.03,0,.04,0s.03-.01.04-.01.03-.01.04-.02c.05-.02.08-.03.09-.04s.03-.02.06-.03c.03,0,.09.02.17.05s.13.06.14.08c.04,0,.09.01.15.01s.12,0,.18,0h.63c.07,0,.12,0,.17,0s.07,0,.07-.01c0,0,.01,0,.02,0,0,0,.01,0,.02,0s.01,0,.02,0c.13,0,.23-.01.29-.03s.13-.06.21-.1c.05-.04.08-.06.1-.07s.02,0,.03,0h-.02c.09-.05.16-.07.21-.08s.1-.02.14-.03c.07-.01.14-.03.2-.05s.1-.04.13-.07c.01-.01.03-.02.04-.03s.03-.02.05-.04c.03-.03.07-.06.11-.09s.08-.07.12-.1.07-.06.1-.09.05-.04.05-.05c.01-.01.02-.02.02-.03s.01-.03.03-.08c.03-.08.06-.13.07-.15.06-.14.11-.26.17-.38s.11-.22.18-.32.15-.19.24-.26.21-.15.35-.21c.02,0,.04,0,.05,0s.05-.03.11-.06c.01,0,.03-.01.05-.02s.04-.02.05-.02l.06-.02s.07.02.12.07.08.09.08.11v.34s.02.06.05.16c.03.06.05.12.07.18s.03.11.03.14v.28c0,.2,0,.41-.02.64s-.03.43-.04.58c-.04.18-.11.32-.22.42s-.24.18-.39.23-.3.08-.47.1-.32.02-.47.02h-.85c-.06-.05-.11-.07-.16-.08s-.11,0-.18,0c0,0-.01,0-.02,0s-.05.01-.12.03c-.07.03-.12.04-.14.04s-.04,0-.05,0c-.04.01-.1.02-.2.03s-.19.01-.28.02-.19.01-.27.01-.14,0-.17,0h-4.68c-.07,0-.14,0-.2-.02s-.12-.03-.18-.05c-.06-.01-.12-.03-.18-.05s-.11-.03-.14-.03c-.01,0-.03,0-.04,0s-.05.01-.11.03c-.01,0-.03,0-.06,0s-.06.01-.09.02c-.03.01-.06.02-.09.02h-.05s-.09,0-.17.02-.18.04-.29.06c-.14.03-.27.05-.39.08s-.22.04-.28.04h-.21l-1.36.03s-.03-.03-.06-.08-.05-.11-.07-.18-.05-.14-.07-.21-.04-.12-.04-.16h0Z" />
          <path class="cls-6"
            d="M28.22,52.95s-.05-.08-.1-.17-.1-.18-.15-.28-.09-.2-.14-.29-.07-.16-.08-.2c-.01,0-.03-.04-.04-.09s-.03-.11-.04-.18-.03-.12-.04-.18-.01-.09-.01-.1c-.06-.2-.13-.39-.22-.58s-.18-.38-.26-.57c0-.01-.02-.06-.06-.14s-.06-.12-.06-.14c0-.01-.01-.04-.02-.09s-.01-.09-.02-.15-.01-.1-.02-.15,0-.08,0-.09c-.03-.11-.1-.24-.2-.39s-.18-.29-.23-.42c-.07-.2-.13-.41-.19-.61s-.12-.41-.21-.62c-.06-.14-.13-.27-.21-.4s-.17-.26-.26-.39c0-.02,0-.05-.02-.08s-.03-.06-.04-.07c0,0,0-.03-.01-.06s-.02-.07-.04-.11-.03-.08-.04-.11-.02-.05-.03-.06l-.06-.07c-.16-.1-.29-.23-.39-.37s-.22-.27-.37-.38c-.1-.07-.2-.14-.28-.21s-.13-.18-.13-.31c0-.08.02-.15.06-.2s.09-.08.15-.1.12-.04.2-.04.14,0,.2,0c.02,0,.06-.01.12-.02s.13-.01.21-.02.14-.01.21-.02.11,0,.15,0c0,0,.02,0,.03,0,.01,0,.02,0,.03,0s.01,0,.02,0l.05.02s.04,0,.09.02.1.03.15.05.1.04.15.05.08.02.09.02c.04,0,.11,0,.21.02s.21.03.33.04.23.03.33.04.17.01.21.01c.23.07.35.23.35.47,0,.15-.02.29-.07.41s-.07.26-.07.4c0,.19.02.35.05.5s.07.28.12.42.09.27.15.41.1.29.15.46c0,.01,0,.04.01.09s.02.09.02.15.01.1.02.15.01.08.01.09c0,.02.02.06.04.12s.05.12.08.2.06.15.09.21.05.12.06.16c0,.01.02.05.05.1s.05.11.08.17.06.12.08.17.04.08.04.09c.01.03.03.08.04.15s.03.12.04.13c.07.17.15.34.22.52s.16.34.24.49c.01,0,.04,0,.09,0s.07,0,.08,0c.12,0,.23-.02.32-.05s.15-.12.19-.25c.02-.03.04-.08.07-.15s.05-.16.08-.24.06-.17.08-.24.04-.13.04-.16c.12-.08.22-.18.29-.31s.13-.27.17-.42.07-.3.08-.45.02-.29.02-.42v-.02s-.01-.09-.02-.16-.02-.13-.02-.2-.01-.12-.01-.17,0-.08,0-.09c0,0-.02-.03-.04-.08s-.04-.09-.06-.15-.05-.1-.07-.15-.04-.08-.04-.09c-.02-.08-.03-.17-.04-.28s-.02-.22-.03-.34-.03-.22-.06-.33-.07-.2-.14-.27c-.01-.01-.05-.04-.12-.07s-.12-.06-.15-.07c-.12-.04-.23-.07-.33-.08s-.19-.04-.26-.07-.13-.09-.17-.16-.06-.17-.06-.32v-.07s0-.07,0-.1.03-.07.07-.09c.02,0,.05-.02.1-.04s.1-.04.15-.06.1-.04.14-.05.08-.02.09-.02h.1c.1,0,.2.02.29.06s.19.06.3.06h1.53s.09.03.19.08.18.1.23.13c0,0,.02.02.04.04s.05.04.07.07.04.06.06.09.02.05.01.07c-.01.06-.05.1-.1.12s-.11.05-.18.08-.12.08-.17.15-.07.17-.07.32c0,.17.01.36.04.58s.08.41.15.57c.01.02.04.06.07.13s.07.14.11.21.07.15.1.22.05.11.05.13c.01,0,.02.05.02.12s0,.14,0,.21,0,.11,0,.12c.02.08.06.16.11.25s.09.17.12.25c.03.09.05.19.06.28s.01.2.01.3c0,.06,0,.12,0,.18s0,.12,0,.18c.07.09.13.19.18.29s.1.2.15.29.11.19.17.27.15.16.26.23h0c.06,0,.12-.02.18-.07s.11-.09.14-.14c.06-.08.08-.17.08-.25s0-.18.04-.29c0,0,0-.02.02-.04s.03-.04.05-.06.04-.04.05-.06.02-.03.02-.04c.09-.2.16-.41.21-.61s.12-.41.21-.62c0-.01.02-.05.06-.1s.06-.09.06-.1c.07-.12.13-.25.17-.41s.06-.3.06-.43v-.11s-.01-.05-.03-.1-.03-.08-.03-.1c-.01-.03-.02-.09-.02-.19v-.58c0-.08,0-.15.02-.19-.05-.1-.12-.2-.22-.29s-.2-.18-.3-.27-.19-.19-.26-.28-.11-.21-.11-.32v-.05c.08-.14.18-.23.31-.25s.26-.03.41-.03c.2,0,.39.01.58.04s.38.04.57.04c.04,0,.1,0,.18,0s.13,0,.14,0c.07-.03.12-.05.16-.06s.08-.03.11-.04.06-.02.06-.02h.09c.05,0,.11.01.18.03s.13.05.19.09.11.09.15.14.06.11.06.17h0c-.04.16-.08.31-.13.47s-.14.28-.27.37c-.01,0-.04.02-.07.03s-.07.04-.11.06-.08.05-.11.07-.06.04-.07.04c0,0-.01.03-.04.06s-.06.07-.09.11-.07.08-.11.13-.07.08-.09.1c-.05.08-.08.16-.09.24s-.02.16-.03.24c-.05.13-.09.28-.15.46s-.1.32-.15.42c0,.03-.02.08-.06.15s-.06.11-.06.12c-.01.02-.03.07-.05.14s-.04.16-.06.24-.04.17-.06.26-.04.15-.05.19v.14c-.09.28-.19.52-.31.73s-.26.41-.42.62l-.07.07s-.06.06-.07.06c0,.01-.01.04-.02.08s-.02.08-.04.13-.03.09-.04.13-.02.07-.03.07-.02.03-.03.07c0,.02-.01.04-.02.07-.02,0-.06.04-.12.1s-.09.09-.11.1c0,.01-.01.06-.03.13s-.03.12-.03.15c-.03.13-.06.28-.1.44s-.1.32-.18.47-.17.28-.28.38-.25.15-.41.15-.29-.03-.39-.08-.17-.13-.22-.21-.09-.19-.13-.31-.07-.24-.12-.36c-.03-.05-.05-.09-.06-.12s-.04-.07-.06-.12c-.05-.12-.08-.27-.1-.42s-.03-.29-.06-.41c-.03-.25-.08-.46-.15-.65s-.18-.38-.31-.57h-.17c-.09,0-.16.02-.21.05s-.08.07-.11.12-.06.11-.08.18-.06.13-.11.2c-.01.01-.04.04-.07.07s-.07.07-.11.1l-.1.1s-.05.05-.05.06c-.01,0-.03.02-.04.06s-.03.07-.04.08c-.01.03-.03.08-.05.14s-.04.12-.06.19-.04.12-.05.18-.02.09-.03.11c-.01.02-.03.07-.05.15s-.05.17-.07.26-.04.18-.06.26-.03.13-.04.15c0,0,0,.04-.03.09s-.04.12-.07.19-.06.14-.09.22-.05.13-.07.17c-.05.11-.11.2-.19.25s-.17.09-.3.09-.25-.02-.37-.05-.21-.12-.29-.24Z" />
          <path class="cls-6"
            d="M37.82,52.51c0-.12.04-.22.11-.3s.16-.16.25-.23.2-.14.29-.22.17-.17.22-.28c.03-.08.06-.16.07-.24s.02-.17.02-.26c0-.08,0-.17,0-.24s0-.15,0-.22v-.11s.01-.06.03-.14.03-.12.03-.13v-.75s0-.03,0-.07.01-.08.02-.12.02-.08.02-.12,0-.06,0-.07c0-.02-.01-.07-.03-.15s-.03-.13-.03-.15v-.05s0-.04.02-.08.03-.08.04-.13.03-.09.04-.13.02-.07.02-.08c0,0,0-.06.02-.15s.02-.17.02-.23c0-.18,0-.35-.03-.51s-.08-.31-.2-.46c-.02-.02-.06-.06-.11-.13s-.11-.14-.17-.21-.11-.14-.17-.21-.08-.1-.09-.12c0-.01-.02-.06-.06-.15s-.07-.15-.08-.2v-.05c0-.05.02-.1.06-.16s.08-.09.13-.13c.13-.09.27-.18.41-.26s.28-.16.42-.22c.01,0,.06,0,.13-.02s.12-.03.14-.04c.01,0,.05-.03.12-.06s.13-.07.21-.11.14-.08.21-.11.11-.06.13-.06c.03,0,.08,0,.16,0s.13,0,.17,0,.08,0,.13,0,.09,0,.1,0l.12.21s.01.03.02.09.01.13.02.21.02.16.02.24.01.16.02.21v.1c0,.06,0,.11,0,.14s-.03.08-.08.14c0,.05,0,.12,0,.22s0,.22,0,.35,0,.25,0,.36,0,.19,0,.23c0,.01,0,.05-.02.1s-.03.11-.04.17-.03.11-.04.17-.02.08-.02.09v.18c0,.07.01.13.03.18s.05.09.07.14.05.08.07.12.03.08.03.14c0,.11,0,.23-.02.35s-.06.23-.14.32c.01.07.02.14.02.21v.21c0,.18,0,.35-.02.53s-.03.36-.05.55c0,0-.01.05-.03.12s-.03.12-.03.13v.26c0,.05,0,.1,0,.15s.03.09.06.12l.88.88s0,.05.02.1.03.09.04.11v.07c0,.07-.01.13-.04.21s-.07.14-.12.2-.11.11-.18.15-.14.06-.21.06h-1.06c-.07,0-.17,0-.31,0s-.29-.01-.43-.02-.29-.02-.42-.02-.21,0-.25,0c-.2-.01-.36-.06-.49-.15s-.2-.24-.2-.44ZM38.62,41.28c0-.25.07-.5.21-.74s.32-.42.55-.53c.03,0,.08,0,.16,0s.16-.01.24-.02.17-.01.24-.01.13,0,.17,0c0-.02,0-.03.03-.03.1,0,.19.02.27.06s.14.1.2.16.11.14.16.22.09.16.13.23c.02.03.04.07.06.11s.05.09.07.13.04.08.06.12.02.05.02.06c0,.02,0,.08,0,.18s0,.18,0,.23c0,.2-.03.38-.09.56s-.14.34-.26.48-.25.25-.41.34-.34.13-.54.13c-.02,0-.05,0-.1,0s-.09,0-.12,0c-.12-.12-.25-.24-.38-.36s-.24-.24-.35-.37-.19-.26-.25-.41-.1-.31-.1-.5Z" />
          <path class="cls-6"
            d="M48.09,52.76v-.04s0-.04,0-.06l.02-.08s.02-.03.07-.06.1-.06.16-.09.12-.07.17-.1.09-.06.11-.08.05-.06.08-.12.07-.12.11-.18.07-.12.09-.18.05-.1.06-.12c0,0,0-.03,0-.07s0-.09,0-.14,0-.1,0-.14,0-.07,0-.08c.07-.29.1-.58.12-.88s.07-.59.16-.88v-1.48c0-.33-.02-.66-.06-.97s-.13-.63-.28-.93c-.03-.02-.09-.05-.16-.08s-.16-.07-.24-.11-.17-.07-.25-.1-.13-.05-.16-.05h-.47s-.04-.01-.07-.03-.06-.03-.08-.03h-.05s-.08,0-.09,0-.05.03-.11.06c-.25.14-.45.26-.58.38s-.22.24-.28.38-.1.29-.13.47-.06.4-.11.66c0,0,0,.05-.02.13s-.02.12-.02.13v.48s0,.06-.02.11-.03.11-.05.17-.04.11-.05.17-.02.08-.02.09c-.02.1-.04.18-.05.25s-.02.13-.03.19,0,.12,0,.19v.25c0,.28.03.56.1.84s.12.57.17.86v.21c.03.13.09.22.2.28s.22.11.33.16.22.1.31.16.14.15.14.28c0,.09-.02.17-.05.22s-.09.12-.16.2c-.01.01-.03.02-.06.03s-.05.02-.07.03c-.03.02-.05.04-.08.05h-1.96c-.07-.03-.13-.05-.18-.06s-.1,0-.16,0c-.21,0-.41.03-.61.08s-.4.08-.61.08c-.13,0-.21-.04-.25-.13s-.05-.18-.05-.28v-.05s0-.04,0-.07c0-.03,0-.06,0-.09,0,0,.02-.05.05-.12s.06-.12.07-.15c.03-.05.06-.07.08-.07,0,0,.03-.02.07-.03s.09-.03.13-.05.09-.04.13-.05.07-.02.08-.03c.12-.07.22-.16.3-.28s.13-.24.18-.38.08-.28.09-.42.03-.29.03-.42v-2.08s-.02-.07-.03-.14-.01-.12-.01-.14v-.03c0-.08.01-.17.04-.24s.06-.16.09-.23.06-.16.09-.24.04-.17.04-.26c0-.11-.01-.23-.03-.36s-.06-.25-.11-.37-.12-.23-.2-.33-.17-.18-.27-.23c-.01-.01-.05-.03-.11-.04s-.09-.02-.11-.02c-.09-.05-.16-.09-.21-.14s-.12-.11-.2-.21c0-.09.03-.17.08-.23s.11-.13.17-.19c.02,0,.06,0,.12-.02s.09-.02.11-.02c.13-.06.25-.15.35-.27s.21-.22.33-.29c.14-.08.28-.14.42-.2s.28-.12.41-.21c0,0,.02-.02.06-.03l.06-.02s.05,0,.1.01.09.02.12.03c.02.02.07.05.16.1s.15.09.18.12c.05.04.09.1.12.19s.06.17.08.26.06.17.09.24.09.1.16.1c.12,0,.23-.02.33-.06s.19-.1.27-.16.17-.14.24-.21.16-.16.24-.23c.01,0,.03-.01.05-.02.01,0,.03-.01.04-.01s.03,0,.04-.01c.05-.03.12-.07.21-.11s.18-.08.26-.11.16-.07.22-.09.1-.03.11-.03c.03,0,.06,0,.09,0,.07-.01.11-.02.15-.02.25,0,.5.04.75.13s.48.18.7.29c.17.1.33.21.48.31s.27.25.35.43c.12.34.19.67.22.98s.04.66.04,1.03v.23s-.02.04-.04.07-.03.06-.03.07.01.06.03.13.04.12.04.15v.19s0,.12,0,.21-.01.19-.02.29-.01.19-.02.28-.02.14-.02.17c0,.09,0,.21-.02.37s-.05.29-.1.39v1.08c0,.22.02.44.05.66s.13.4.28.55c.03.03.07.06.11.07s.08.02.12.02c.05,0,.09,0,.13,0s.08,0,.11,0h.07c.06.02.13.05.21.09s.16.08.23.14.13.11.19.18.08.13.08.21c0,.02,0,.05-.01.08s-.01.06-.01.07c-.01.02-.04.05-.07.08l-.12.12-.12.12s-.06.06-.07.08c-.03,0-.06.02-.09.03s-.06.02-.07.02h-2.11c-.08,0-.22,0-.4-.02s-.37-.05-.55-.09-.35-.1-.49-.18-.21-.16-.21-.27Z" />
          <path class="cls-6"
            d="M55.17,58.31c-.2-.06-.39-.14-.57-.24s-.35-.21-.53-.32c-.03,0-.06-.02-.09-.03-.07-.03-.1-.04-.12-.04-.08-.05-.16-.12-.23-.21s-.13-.18-.19-.28-.1-.21-.15-.32-.08-.21-.1-.3c0,0-.01-.01-.02-.04s-.01-.06-.02-.1-.01-.07-.02-.11-.02-.06-.02-.08c0-.01,0-.03,0-.06s0-.05,0-.08c0-.03,0-.05-.02-.05,0-.02,0-.07-.01-.14s-.02-.15-.03-.24-.03-.16-.04-.24-.02-.12-.03-.14v-.07s.02-.07.05-.12.05-.11.08-.16.06-.11.08-.16.05-.08.06-.09c0,0,.01-.03.03-.06s.05-.07.08-.1.06-.07.09-.11.05-.06.06-.08c.02-.03.05-.06.1-.11s.1-.1.15-.15.1-.09.14-.14.07-.07.08-.07c.02-.01.07-.04.14-.09s.15-.1.23-.15.17-.1.24-.15.13-.08.15-.09c.06-.05.09-.08.1-.11s.01-.07.01-.13v-.1c-.05-.01-.11-.03-.19-.06s-.15-.05-.22-.08-.15-.06-.22-.1-.13-.07-.18-.1c-.12-.08-.21-.17-.27-.26s-.11-.19-.14-.29-.05-.21-.06-.32,0-.24,0-.38c0-.12.02-.22.07-.32s.1-.19.18-.27.15-.16.24-.24.17-.16.26-.23c.04-.03.08-.05.14-.07s.1-.05.16-.07.1-.05.15-.08.08-.07.11-.11c.01-.02.03-.05.05-.09s.05-.08.07-.12.04-.08.06-.11.03-.05.03-.06v-.09c0-.08-.03-.14-.1-.18s-.15-.06-.23-.08-.17-.05-.26-.08-.14-.1-.17-.2c0-.01,0-.06-.02-.14s-.03-.12-.04-.14c-.05-.09-.09-.17-.13-.24s-.08-.13-.12-.2-.07-.13-.11-.2-.07-.15-.09-.24c-.01-.02-.02-.05-.02-.1s0-.09,0-.15,0-.1,0-.16v-.24c0-.06,0-.11,0-.17s0-.1,0-.14.01-.06.02-.07c0-.01,0-.05.03-.11s.04-.13.07-.21.06-.16.08-.23.05-.14.07-.19c.06-.16.13-.34.21-.53s.17-.35.26-.48c0-.01.03-.04.06-.07s.07-.07.11-.11.07-.08.1-.11.06-.05.07-.06c.16-.19.32-.35.47-.47s.35-.22.61-.27c.02,0,.06-.01.13-.02s.14-.01.21-.01.15,0,.21-.01.11-.01.13-.02c.03,0,.08-.02.15-.06s.11-.07.12-.09c.1-.01.21-.02.33-.03s.22-.01.31-.01c.08,0,.14,0,.18.01s.09.05.15.12c.03,0,.09,0,.18.02s.17.03.27.04.18.03.26.04.14.02.17.03c.05,0,.09.02.12.04s.05.05.07.08.04.07.05.1.04.07.08.1.09.07.15.11.13.08.2.11.14.06.21.09.13.04.19.04c.14,0,.3-.03.46-.1s.3-.15.42-.24c.04-.03.07-.05.08-.06l.05-.05s.04-.03.06-.04.05-.02.09-.03c.01,0,.04-.01.07-.01s.07,0,.11,0,.08,0,.11,0h.08c.34,0,.61.07.81.2s.3.39.3.78c0,.13,0,.24-.01.33s-.04.17-.08.23-.11.11-.2.14-.2.04-.35.04h-.03s-.07,0-.14,0-.15-.01-.24-.02-.16-.02-.24-.02-.12,0-.14,0c-.05,0-.12.02-.21.07s-.13.11-.13.18v1.78c0,.14-.03.28-.08.42s-.12.28-.19.41c-.15.27-.34.52-.57.75s-.51.38-.85.45c-.03,0-.09.02-.18.03s-.17.03-.27.04-.18.03-.27.04-.14.02-.17.03h-.27c-.08.01-.15.04-.21.07s-.13.05-.21.05h-.12s-.04,0-.07,0-.07-.01-.11-.02-.08-.02-.11-.02-.05,0-.06,0h-.54s-.09,0-.19-.02-.14-.02-.16-.02h-.16s-.05.04-.1.08-.09.08-.14.13-.09.1-.14.15-.07.08-.07.1c-.01.01-.03.04-.04.09s-.03.1-.04.16-.03.12-.04.18-.03.1-.03.14v.1c0,.14.03.24.1.31s.14.12.24.15.2.04.31.04.21,0,.3,0h.83s.03,0,.07,0,.08.01.13.02.09.02.13.02.07,0,.08,0h.95s.05,0,.1-.02.09-.03.15-.05.1-.04.15-.05.08-.02.1-.02h.12s.02,0,.05.02.06.03.09.05.06.04.09.05.04.02.05.02c.01,0,.04.01.09.01s.09,0,.15.01.1.01.15.01.08,0,.09,0c0,.01.03.03.06.06s.07.06.11.09.08.06.11.09.06.05.07.05c.01,0,.04,0,.09.02s.09.03.15.04.1.03.15.04.08.02.09.03c.07.03.12.07.16.1s.08.08.11.12.06.09.09.15.07.11.11.17c.06.09.13.16.22.2s.17.12.24.22c.08.11.15.24.21.4s.1.31.13.48.05.33.06.5.01.32.01.45v.14c-.07.49-.24.93-.51,1.33s-.6.74-.99,1.03-.82.5-1.29.65-.94.23-1.42.23c-.37,0-.74,0-1.1-.02s-.73-.02-1.09-.02h-.44ZM55.71,56.81s.05.03.1.04.08.02.09.02c.02.01.07.03.15.04s.13.03.15.04c.21.07.42.15.62.24s.42.15.66.15c.09,0,.21-.01.34-.04s.25-.06.34-.09c0,0,.02,0,.05-.02s.06-.03.09-.04.07-.04.12-.06c.01,0,.04-.01.09-.01s.09,0,.15-.01.1-.01.15-.02.08-.01.1-.02c0,0,.02-.02.04-.04s.05-.04.07-.06.05-.04.08-.06.05-.03.06-.04c.02-.01.05-.05.1-.1s.1-.11.15-.17.11-.12.15-.18.08-.09.1-.11c.09-.09.18-.16.26-.21s.15-.09.21-.14.11-.11.15-.19.05-.19.05-.34v-.14s-.02-.06-.07-.13-.07-.12-.07-.15c-.01,0-.03-.05-.04-.12s-.03-.12-.04-.13c0,0-.02-.03-.05-.06s-.07-.07-.1-.11-.07-.08-.11-.11-.06-.06-.07-.06c-.08-.08-.16-.17-.23-.25s-.16-.15-.24-.22-.17-.12-.27-.17-.21-.08-.34-.1h-.54c-.09-.01-.2-.04-.33-.09s-.22-.09-.28-.11h-.58c-.1,0-.22,0-.36,0s-.28.01-.42.03-.28.05-.41.08-.24.09-.32.15c-.09.06-.17.12-.24.19s-.15.11-.24.15c-.03.12-.05.24-.06.34s0,.21,0,.32v.39c0,.19.01.4.04.62s.11.41.24.56c.01.03.04.08.09.13s.1.11.16.17.11.11.17.16.09.08.12.1ZM55.7,47.25c0,.09.01.17.04.23s.06.12.09.16.06.09.09.13.04.09.04.15v.54s.04.09.07.19.06.17.09.22c0,.01,0,.03.02.04s.03.02.05.02c.01,0,.06.02.14.03s.12.03.14.04c.05.02.08.05.09.08s.02.06.03.09.03.05.06.07.09.03.19.03c.08,0,.2,0,.33-.03s.28-.05.42-.08.27-.08.39-.13.2-.11.23-.18c0,0,.02-.03.03-.06s.03-.07.04-.11.03-.08.04-.11.02-.06.02-.07c.02-.01.06-.04.12-.09s.09-.08.09-.09c.05-.06.09-.14.12-.24s.07-.21.09-.32.04-.22.05-.33.02-.19.02-.25c0-.22-.01-.44-.04-.65s-.11-.42-.24-.61c0,0-.03-.05-.09-.12s-.1-.12-.12-.15c0,0,0-.03-.03-.07s-.04-.09-.07-.13-.05-.09-.07-.13-.03-.07-.03-.08c-.05-.07-.12-.14-.23-.2s-.19-.1-.25-.14c-.01-.01-.04-.03-.07-.04s-.06-.02-.07-.02c-.02,0-.05.02-.08.04s-.08.04-.12.06-.08.04-.12.06-.06.03-.08.04c-.01,0-.06.02-.14.03s-.12.03-.14.04c-.01,0-.04.02-.07.05s-.07.06-.11.1-.08.08-.11.11-.05.06-.06.07c-.03,0-.05.01-.07.02-.04.01-.06.03-.06.05-.01,0-.04.02-.07.05s-.06.05-.08.06c-.07.09-.12.19-.16.29s-.07.21-.09.31-.04.21-.06.32-.05.21-.08.31c-.01.01-.04.06-.08.14s-.06.12-.06.14c0,0,0,.02,0,.07Z" />
        </g>
      </g>
      <text class="cls-5" transform="translate(1085.52 251.78)">
        <tspan x="0" y="0">Luisa</tspan>
        <tspan x="6.76" y="24">R</tspan>
        <tspan class="cls-10" x="19.32" y="24">e</tspan>
        <tspan x="28.78" y="24">y</tspan>
      </text>
      <circle class="cls-8" cx="650.09" cy="1192.94" r="29.04" />
      <text class="cls-4" transform="translate(621.22 1191.41)">
        <tspan x="0" y="0">Somni</tspan>
        <tspan x="12.28" y="20.4">451</tspan>
      </text>
      <g>
        <circle class="cls-8" cx="641.88" cy="1642.44" r="27.2" />
        <text class="cls-2" transform="translate(611.56 1647.76)">
          <tspan x="0" y="0">Zachry</tspan>
        </text>
      </g>
      <text class="cls-7" transform="translate(231.8 309.51)">
        <tspan x="0" y="0">Robert </tspan>
        <tspan class="cls-9" x="-6.57" y="20.4">F</tspan>
        <tspan class="cls-1" x="-.48" y="20.4">robisher</tspan>
      </text>
    </g>
  </g>
</svg>