<svg width="599" height="599" viewBox="0 0 599 599" fill="none" xmlns="http://www.w3.org/2000/svg">
<path d="M210.7 56.7003C212 57.1003 213.4 57.6003 214.7 57.8003C218.2 58.5003 222.5 60.7003 225 59.4003C230.8 56.4003 236.5 54.1003 242.9 53.2003C244.5 53.0003 246.8 53.0003 247.6 51.9003C251.1 47.4003 255.2 51.5003 258.8 50.7003C257.6 51.6003 256.3 51.6003 255 51.8003C253.6 52.1003 251.1 52.4003 251 53.0003C250.2 57.6003 246.7 55.6003 244.3 55.9003C242.1 56.2003 239.8 56.2003 238.5 56.2003C238.3 59.1003 238.1 61.2003 237.9 64.1003C240 64.1003 242.2 64.1003 244.5 64.1003C251.9 64.3003 254.5 67.5003 253 74.6003C252.7 76.2003 253 77.9003 253 78.9003C255.5 80.0003 257.8 81.0003 260.2 82.0003C260.1 82.4003 259.9 82.7003 259.8 83.1003C258 82.8003 256.2 82.4003 254.3 82.1003C254.2 82.3003 254.2 82.5003 254.1 82.7003C255.8 83.7003 257.4 84.6003 260.2 86.2003C258.5 87.5003 257.4 88.9003 256.1 89.1003C251.8 89.8003 248.1 94.5003 249.5 98.6003C251 103.3 252.7 108 255.1 112.3C256.3 114.5 258.9 116.1 261.2 117.6C263.2 118.9 265.5 119.7 267.7 120.4C270.3 121.3 272.3 121.5 274.4 118.4C276.7 114.9 277.2 109.9 281.9 107.8C282.9 107.4 282.8 104.3 283.2 102.8C285.4 102 288 100.2 290.1 100.6C295.4 101.6 298.4 98.9003 301.9 95.8003C303.9 94.1003 306.6 93.1003 309.2 92.2003C314.6 90.2003 320.1 88.7003 325.4 86.4003C328.9 84.9003 329.4 82.1003 327.2 80.5003C324.1 78.1003 324.1 75.8003 327.6 73.5003C326.9 73.2003 326.4 72.9003 325.8 72.7003C326.6 72.4003 327.4 72.0003 328.5 71.6003C326.6 69.2003 324.8 66.9003 322.7 64.1003C324.3 64.5003 325.7 64.9003 327.1 65.3003C327.2 65.0003 327.4 64.6003 327.5 64.3003C325.1 63.1003 322.8 61.9003 320 60.6003C321.8 57.8003 323.8 54.5003 326.2 50.7003C323.9 51.1003 321.8 51.2003 320.1 51.9003C317 53.2003 314.3 53.9003 312.2 50.3003C311.9 49.8003 310.9 49.6003 310.2 49.5003C307.5 49.0003 304.7 48.1003 302 48.2003C296.9 48.4003 291.2 45.5003 286.9 51.0003C285.7 50.6003 283.7 49.5003 283.4 49.9003C279.8 53.8003 275.7 49.2003 271.8 50.7003C269.8 51.4003 266.8 49.4003 264.9 50.2003C262 51.5003 260.9 50.4003 259.4 48.4003C258.9 47.7003 257.7 47.3003 256.8 47.2003C248.3 46.2003 239.8 45.2003 231.3 44.4003C230.2 44.3003 228.9 45.4003 227.8 46.0003C227.9 46.3003 227.9 46.6003 228 47.0003C229.6 47.3003 231.2 47.7003 233.5 48.2003C230 50.5003 225.5 48.1003 225.5 47.5003C225.5 43.1003 223.2 44.2003 221.2 45.4003C218.9 46.7003 217 48.6003 215 50.1003C217.8 52.4003 219.6 53.8003 221.4 55.3003C218.2 53.8003 213.8 54.2003 210.7 56.7003ZM210.7 56.7003C208.6 55.7003 208.4 51.6003 204.3 53.2003C205 54.2003 205.6 55.0003 206.1 55.8003C204.6 57.1003 203.4 58.3003 202 59.5003C209.7 64.1003 216.3 64.7003 219.3 60.5003C216.5 60.3003 214 60.3003 211.7 59.7003C210.6 59.5003 209.7 58.3003 208.8 57.5003C209.4 57.4003 210.1 57.0003 210.7 56.7003ZM2.5 298.9C3.2 135.7 133.4 3.70029 297.1 2.50029C462.3 1.30029 594.9 133.5 595.8 297.2C596.7 462.8 464.6 594 302.5 595.6C136.6 597.4 3.1 464.5 2.5 298.9ZM395.2 133.9C396.7 133.5 398.3 133 400.2 132.5C399.2 135.1 408.1 136.5 400 139.8C405 141.3 401.2 143.5 400.6 145.3C402.6 145.5 404.1 145.7 405.8 145.9C404.7 148.1 403.8 149.9 402.9 151.8C408.9 149.5 414.6 147.3 420 145.2C419.8 143.6 419.7 142 419.3 140.6C419 139.6 418.4 138.5 417.7 138C415.6 136.6 413.3 135.6 411.2 134.3C407.1 131.8 403 129.2 398.6 126.4C398.6 125.1 398.6 123.3 398.6 121.1C396.4 121.3 394.7 121.5 392.8 121.6C392.9 120.5 393 119.7 393.2 118.6C391.6 118.8 390.2 119 388.9 119.2C387.9 125.1 389 128.9 392.8 129.6C396.1 130.2 395.1 132.1 395.5 133.8C389.6 130 386.3 134.7 382.5 137.7C383.6 139.7 384.9 141.7 385.9 143.7C386.4 144.8 386.3 146.9 387 147.3C388 147.7 389.6 147 390.9 146.6C392 146.2 392.9 145.4 394 145C396.9 144.1 397.5 141.8 395.8 140.1C393.3 138 394.7 136.1 395.2 133.9ZM423.7 211.5C423.2 213.7 423 216 422.2 218.1C421.4 220.3 420.3 222.8 418.7 224.2C413.7 228.6 411.4 233.4 414.3 239.9C414.6 240.7 414.6 242.1 414.1 242.7C411.8 245.7 409.8 249.5 406.6 251.2C400.7 254.4 399.5 260.1 397.2 265.3C396.1 267.8 395 270.3 394 272.8C392.3 276.9 390.3 281 389.3 285.2C389 286.6 391.4 288.5 392.4 290.3C392.8 291.1 392.7 292.1 392.8 293C392.9 294.2 392.6 295.9 393.3 296.6C396.3 299.8 395.6 303.2 394.5 306.8C393.5 310.2 391.4 313.7 391.6 317.1C392 321.8 394.1 326.4 395.4 331C395.4 331.1 395.7 331.2 395.8 331.3C399.7 334.4 403.7 337.3 407.3 340.7C409.1 342.4 410 345 411.3 347.2C412.4 349.1 413.2 351.6 414.9 352.8C419.6 356 425 358.3 429.7 361.5C433.9 364.3 437.7 365.6 441.9 362.1C446 358.6 451 357.3 455.8 358.1C460.5 358.9 463.5 357.2 467.1 355C472.2 351.8 477.7 349.2 483.2 346.7C486 345.4 488.3 346.8 489.7 349.6C492.5 355.2 492.8 355.3 498.2 353.3C504 351.1 507.5 354 506.5 360.1C505.6 365.3 504.2 370.5 503.9 375.7C503.7 378.9 505 382.3 506.2 385.3C507.8 389.2 510.1 392.8 511.9 396.6C515.5 404.2 512.2 412.3 513.4 420.1C513.6 421.7 512.5 423.6 511.7 425.2C508.6 431.4 505.5 437.7 502 443.6C499.7 447.5 499.4 451.3 500.1 455.5C501.1 461.7 502.3 468 498 473.7C497.1 474.9 497.1 476.9 496.9 478.5C495.8 486.3 495.9 494.3 491.1 501.2C490.4 502.2 490.7 504 490.4 506C495.5 503.4 500.3 501.4 504.4 498.6C509.4 495.1 514.4 491.4 518.3 486.8C527.4 475.9 535.9 464.4 544.5 453.1C546.4 450.6 547.8 447.8 549.2 445C552.2 439.1 554.1 432.5 558 427.3C569.7 411.7 573.2 393.5 576.4 375C577.7 367.2 578.3 359.1 580.5 351.5C587.1 328.4 590.7 305.1 589.1 281C588.8 276.8 588.3 272.7 587.8 267.5C586 272.4 588.3 277.8 582.3 280.6C581.9 278.7 581.8 277.1 581.2 275.7C579.7 272.4 578.1 269.2 576.4 266.1C575.5 264.4 574 262.9 573.2 261.1C569.6 253.4 566.8 245.3 562.6 237.9C558.5 230.6 553.2 224 548.6 216.9C547.9 215.9 548.5 214.1 548.5 212.7C549 212.6 549.5 212.6 550.1 212.5C564 230.4 576.4 249.2 582.1 273.1C583.1 270.9 583.5 270.2 583.7 269.5C587.1 250.1 582.2 231.9 575.5 214.1C573.6 209.1 569.5 204.9 566.6 200.3C564.1 196.3 561.8 192.1 559.5 188C560 187.7 560.5 187.4 561 187.1C562.6 189.1 564.2 191.2 565.8 193.2C561.5 180.6 555 169.3 547.9 158.3C547.6 157.9 546.8 157.4 546.4 157.5C542.4 158.9 540.7 155.7 539.7 153.4C536.2 144.7 527.8 140.3 522.5 133.3C519.6 129.4 518 124.5 515.4 119.1C518.4 120.3 519.9 120.9 521.5 121.5C523.1 122.1 524.7 122.6 527.3 123.4C500.3 90.4003 469 64.3003 431.9 45.6003C431.4 45.9003 430.9 46.3003 430.4 46.6003C435.1 56.0003 439.7 65.5003 444.5 75.0003C444.4 75.0003 443.7 75.4003 442.6 76.0003C444.2 76.8003 445.4 77.4003 446.7 78.0003C444.5 78.2003 442.6 77.8003 441 76.9003C439.2 76.0003 437.6 74.7003 435.9 73.6003C437.3 72.7003 438.6 71.9003 440 71.1003C440.1 70.6003 440.2 70.0003 440.3 69.5003C438 68.3003 435.8 66.4003 433.4 66.2003C428.6 65.7003 423.6 66.3003 418.8 66.1003C415.6 66.0003 412.4 62.8003 409.4 66.5003C408.2 67.9003 407.3 70.4003 405.9 70.8003C401.4 72.0003 404.2 74.1003 404.8 76.1003C404 76.4003 403.2 76.8003 402.3 77.1003C406.8 78.6003 406.1 82.3003 406.3 85.5003C406.4 86.4003 407 87.2003 407 88.1003C407.2 90.6003 407.6 93.1003 407.4 95.5003C407.1 99.5003 402.3 103.4 407.3 107.6C409.8 109.7 411.9 112.3 414.5 114.3C418.6 117.4 420.5 116.7 422.7 112.1C423.1 111.3 423.9 110.8 424.7 110C429.5 113.8 434 117.4 438.6 120.8C439.4 121.4 440.8 121.1 441.9 121.3C442.3 118.2 445.7 115.1 441.7 111.9C440.4 110.9 439.9 108.7 439.2 107C438.5 105.2 438.1 103.3 437.6 101.4L437.5 101.5C444.2 103.9 446.9 96.6003 451.9 94.8003C452.3 95.3003 452.7 95.8003 453 96.3003C451.1 98.1003 449.3 99.9003 447.2 102C450.2 104.1 452.9 106 455.5 107.9C455.2 108.3 455 108.7 454.7 109.2C453.3 108.8 452 108.3 449.8 107.6C452.3 112.4 454.4 116.4 456.4 120.4C456.2 121 456.1 121.6 455.9 122.2C451.8 119.1 450.5 121.6 448.6 124C447.6 125.3 445 125.3 443.1 125.9C443 125.8 442.9 125.7 442.8 125.6C440.3 126.3 437.7 126.9 436.3 127.3C433.1 122.6 430.6 119 428 115.2C424.9 120 425.1 121.3 428.9 124.5C430.8 126.1 432.4 128.1 434.3 130.1C427.8 133.6 428.1 133.7 426.3 140.7C425.5 144.1 423.6 147.4 421.6 150.2C420.5 151.8 418 152.4 416.1 153.5C416.2 153.7 416.8 154.6 417.5 155.8C414.2 156.5 411.3 157.1 407.2 157.9C412.6 160.7 416.9 162.7 421 165.2C425.8 168 427.2 172.2 425.9 177.9C417.9 181 408.6 176.5 401.2 183C404.9 188.1 407.5 193.3 405.8 199.7C405.6 200.5 406.1 201.6 406.6 202.4C408.1 204.5 409.7 206.5 411.7 209.2C415.4 207.6 419.6 208.2 423 212C423 211.8 423.4 211.5 423.7 211.5ZM33.1 209.1C33.4 210 33.9 211 33.9 211.9C33.7 216.7 33.4 221.5 33.2 226.3C32.9 233.1 33.4 240.1 31.9 246.6C30.8 251.6 30.2 256.2 32.3 260.6C35.3 267 38.9 273.2 42.5 279.2C43.3 280.5 45.9 282.2 46.8 281.8C51.9 279.5 52.8 283.4 53.5 286.4C55.2 293.2 59.3 297.6 64.9 301.4C70.4 305.2 73 310.9 73.1 317.7C73.1 318.9 73.2 320.4 73.8 321.4C74.9 323.1 76.4 324.5 77.6 326.1C78.9 327.7 79.9 329.6 81.3 331.1C83.5 333.4 85.9 335.4 88.3 337.4C89 338 89.7 338.4 90.9 339.2C91.1 337.9 91.1 337 91.4 336.4C92.1 334.9 93 333.4 93.7 331.9C95.1 332.8 96.9 333.5 97.7 334.8C98.6 336.2 98.4 338.3 99.1 340C103.9 351 101.7 360.7 94.4 369.8C92.2 372.5 90.1 375.7 89.3 379C88.4 382.5 88 386.8 93.4 388.3C92.8 389.3 92.5 390.2 91.8 390.6C89.7 392 87.2 392.9 88.5 396.3C89.4 398.5 89.6 401 90.8 403C94.1 408.5 97.8 413.7 101.1 419.1C106.9 428.8 110.8 439.6 119.1 447.6C122.6 451 127.1 453.3 131.3 456.1C135.9 459.2 140.5 462.3 141.9 468.1C143.5 474.7 144.5 481.4 146.1 488C148.2 496.5 150.1 505 152.9 513.3C155.5 520.6 154.1 529.1 159.8 535.5C162 537.9 163 541.3 164.6 544.3C165 544.1 165.4 543.9 165.8 543.7C165.5 542.6 165.2 541.5 165 540.3C165.2 540.2 165.4 540.2 165.6 540.1C166.7 542.1 167.8 544.1 169 546.3C168 546.2 167.4 546.2 165.3 546C167.7 549 169.5 551.2 171.9 554.1C172 560.2 198 574.3 207.8 572.4C203.1 569.6 198.3 566.8 193.6 564C195.1 561.6 196.1 560 197.4 557.9C195.7 557.4 194.3 557.2 193 556.6C191.6 556 190.3 555 188.3 553.8C190.3 552.8 191.5 552.1 192 551.9C192.8 549.5 193.3 547.8 193.8 546.3C192.6 545.6 190.6 544.4 188.6 543.2C188.8 542.9 188.9 542.7 189.1 542.4C191.7 542.9 194.3 543.3 197.2 543.8C196.5 541.3 196 539.6 195.7 538.5C200.3 538.2 204.8 538.3 209.1 537.6C211.1 537.3 213.3 535.6 211.5 532.8C210.1 530.6 208.4 528.7 207.2 527.2C209.3 527.6 212.2 528.2 215.2 528.8C218 529.4 220.1 529 222.2 526.5C226.7 521.3 231.6 516.4 236.6 511.7C238.5 509.9 239.5 508.5 238.4 505.8C237 502.7 238.1 499.3 241.1 498.1C246.8 495.8 252.7 493.9 258.7 492.8C263.4 491.9 268.5 492 271.9 488.4C279 481 278.7 470.5 282.4 461.6C282.7 460.9 281.8 459.7 281.8 458.7C281.9 456.9 281.8 454.6 282.8 453.5C287.4 448.7 292.6 444.4 297.1 439.5C299.4 437.1 301.9 433.9 302.2 430.8C302.6 427.4 301 423.5 299.4 420.3C298.8 419.1 295.6 419.4 293.7 418.7C290.8 417.6 287.3 416.9 285.3 414.9C276.9 406 265.3 408.4 255.2 405.6C253.7 405.2 252.4 404.2 251 403.6C245.8 401.2 240.8 398.5 235.4 396.8C233.7 396.3 231.2 398.8 229.3 399.7C229.8 398.5 230.5 396.8 231.6 394.1C227.1 393.9 223.4 393.7 219.7 393.5C219.7 393.4 219.7 393.2 219.7 393.1C221.3 392.8 222.9 392.5 225.3 392.1C223.3 391 222.2 390.3 220.9 389.6C224 387.9 223.9 386.1 221.9 384C220.8 382.8 219.2 381.4 219.2 380.1C219.1 373.6 214.6 370.3 210.3 367C205.8 363.5 200.7 361.4 194.7 361.2C192 361.1 188.4 360.4 186.7 358.6C181.5 352.8 175.1 348.1 170.7 341.6C169.9 340.5 168.3 339.9 167.2 339.1C166.1 338.2 165 337.3 163.8 336.4C162.7 335.6 161.3 334 160.3 334.2C155.3 335 150.2 337.1 145.9 332.4C145.7 332.1 144.9 332.2 144.4 332.3C141.3 333 139.4 332.3 137.9 328.9C135.9 324.4 131.8 326 128.2 327C124.2 328.1 126 330.4 126.5 332.8C126.7 334 125.9 335.5 125.5 336.8C125.1 336.7 124.8 336.6 124.4 336.5C124.4 332.7 124.4 328.9 124.4 325.4C125.2 323.7 125.9 322.3 126.6 320.9C125.1 321.4 123.5 321.9 122 322.4C119.1 323.3 116.1 324 113.1 324.9C111.8 325.3 110 325.7 109.3 326.7C107.2 329.9 105.4 333.3 103.3 337.1C102.2 335.4 101.5 334.5 100.9 333.5C97.9 328.7 95.7 328 90.2 329.3C88.5 329.7 85.2 329.2 84.8 328.3C82.8 323.6 78.3 319.7 79.7 313.9C80.5 310.4 81.3 306.8 82.4 303.3C84.6 296 81.9 291.9 74.4 291C71.7 290.7 69.1 289.4 66.9 288.8C70.8 280.1 74.3 272.1 77.8 264.1C69.5 259.9 67.5 260.3 63.8 268.3C61.6 273.1 57.6 272.7 54.3 272C52.4 271.6 49.9 268 49.9 265.9C49.7 255.8 49.3 245.4 54.3 236.1C57.6 230.1 59.7 223.3 67.3 220.5C71.4 219 73.5 220.8 76.1 222.6C77.8 223.8 79.3 225.3 81.2 226.9C82.1 224.2 82.7 222.5 83.5 220C87.7 222.4 91.4 224.5 95 226.6C94.8 227 94.7 227.3 94.5 227.7C95.9 227.4 97.2 227.1 100 226.5C99.7 230.4 99.5 233.7 99.3 236.9C98.9 242.4 99.9 247.7 102.6 252.9C104.3 250.4 105.6 248 106 245.4C106.6 241 106.7 236.4 106.7 232C106.6 226.9 108.5 222.5 112.4 219.8C117 216.6 122.3 214.1 127.6 212C132.6 210 134.8 207.2 134.5 201.7C134.4 200 135 198.3 135.4 196.2C136.8 197.1 137.7 197.7 138.7 198.4C140.1 195.8 140.8 192.8 144.3 192.4C145 192.3 145.5 190.9 146.3 190.3C148.2 188.8 150.1 186.8 152.3 186.1C155 185.3 158.1 185.6 161.3 185.4C160.2 181.2 162.1 178.6 165.5 177.3C169.6 175.7 173.9 174.5 178.2 173.2C181 172.4 183.9 171.9 186.7 171.3C184.6 173.5 182.2 174.5 180.1 175.9C179.5 176.3 179.7 177.8 179.5 178.9C180.4 179 181.4 179.4 182.1 179.2C184.2 178.4 186 177.1 188.1 176.5C193.3 174.9 198.7 173.6 204.3 172.1C203.5 170.2 202.9 169 202.2 167.4C198.9 171.2 195.2 173.7 190.8 170.4C188.1 168.4 186.9 165.5 189.3 162.5C188.1 162.1 187 161.7 185.2 161.1C188.2 159.5 192.1 161.7 193.1 156.7C188.1 157 183.7 157.3 179.2 157.7C184 154.2 188.6 150.9 195 152.5C202.3 154.3 209.6 155.2 216.7 151.7C217.9 151.1 219.2 150.8 220.4 150.4C220.6 150.7 220.7 151 220.9 151.3C216.7 155.9 212.4 160.5 208 165.3C224.6 167.8 224.6 167.8 229 172.2C229.7 170.6 231 168.1 230.9 168C227.1 165.8 230.1 162.8 229.9 160.5C226.9 159.1 224 157.8 221.4 156.6C223.2 153.2 224.6 151 225.6 148.6C226.8 145.9 227.2 143.8 224.7 140.6C222.6 138 220 136.6 217.9 134.3C216.8 133.1 215.7 131.7 215.3 130.2C214.1 124.8 213.2 119.3 212.2 113.6C208.9 115.7 206.2 117.9 203.1 119.2C202 119.7 199.6 118.7 198.7 117.6C198 116.8 198.3 114.7 198.6 113.3C198.8 112.3 199.7 111.4 200.3 110.6C196.8 107 194.6 102.5 189 101.6C186.1 101.2 184.2 100.7 182.4 103.7C180.2 107.4 177.5 110.7 174.5 114.8C176.2 122.5 173.4 125.4 161.7 127.2C158.4 131.1 161.3 139.6 152.9 139.4C149.3 133.5 153 129.3 155.7 125.2C152.7 122 149.9 119.2 147.3 116.3C145.5 114.3 144 112.2 142.1 109.8C142.6 109 145 107 144.7 105.4C143.9 100 146.9 98.1003 151 96.6003C160.5 93.2003 169.9 89.9003 179.4 86.5003C176.8 88.5003 174.3 90.5003 170.5 93.4003C175.5 94.1003 179.5 94.7003 184.9 95.5003C182.8 92.1003 181.1 89.3003 179.3 86.5003C179.8 85.7003 180.3 84.9003 180.9 83.9003C182.1 84.9003 182.9 86.3003 184 86.4003C188.6 87.1003 196.7 80.5003 197.4 75.6003C200.2 75.9003 203 76.2003 205.8 76.5003C206.5 78.3003 206.8 81.1003 208.3 82.9003C210.9 86.0003 209.3 87.5003 206.8 88.6003C202.8 90.4003 199.4 94.4003 194.1 91.8003C193.4 91.5003 191.9 92.7003 190.8 93.2003C190.8 93.6003 190.8 94.0003 190.8 94.5003C192.2 94.9003 193.6 95.0003 194.9 95.6003C196.5 96.4003 198.6 97.2003 199.1 98.6003C201.5 104.3 206.7 105.5 212.5 108.3C211.4 105.4 210.7 103.7 210 101.7C212.2 103.3 213.9 104.6 215.4 105.8C219.1 102.9 221.3 100.1 216.7 96.5003C216.3 96.2003 217 94.5003 217.2 93.5003C218.1 94.0003 219.3 94.2003 219.9 95.0003C221 96.4003 221.7 98.1003 222.5 99.6003C223 99.1003 223.5 98.6003 224 98.1003C226.5 96.4003 228.9 94.7003 231.6 93.0003C228 90.1003 224.8 87.5003 221.6 84.9003C226 81.9003 226.5 80.0003 223.3 77.9003C219.4 75.3003 216 72.3003 217.3 66.5003C213.4 66.1003 208.6 67.0003 206.6 65.1003C203.4 62.0003 201.2 63.3003 198.8 64.6003C195.9 66.2003 193.3 68.4003 190.2 70.7003C192.5 72.6003 193.9 73.6003 195.3 74.7003C191.2 76.7003 187 78.7003 182.9 80.7003C184.8 77.9003 187.3 75.8003 184.6 72.3003C184.4 72.0003 184.3 71.1003 184.5 71.0003C188.1 68.2003 189.4 62.2003 195.7 63.1003C197 63.3003 198.6 62.1003 200.4 61.5003C196.1 57.7003 192.9 61.3003 189.4 61.9003C190.5 60.8003 191.6 59.8003 192.9 58.5003C187.1 56.7003 184.1 58.4003 181.8 64.2003C183.2 64.3003 184.7 64.3003 186.1 64.4003C183.9 66.2003 180.7 67.7003 179.6 70.0003C178 73.5003 177.2 74.7003 172.5 73.6003C174.3 72.2003 178.5 72.4003 176.2 68.2003C173.6 69.8003 171.3 71.8003 168.7 72.8003C166.2 73.8003 164.1 70.8003 164.5 66.3003C163 66.4003 161.7 66.6003 160.3 66.5003C159 66.4003 157.6 65.9003 156.3 65.6003C156.8 65.2003 157.2 64.7003 157.7 64.3003C160.5 65.0003 163.8 65.0003 165.8 66.6003C167.4 67.9003 168 69.2003 170.1 68.0003C171.5 67.2003 174.1 66.5003 174.2 65.6003C174.6 60.1003 180 59.7003 183.1 55.9003C180.8 55.5003 178.8 55.2003 176.7 54.9003C178 51.6003 179.3 48.5003 180.9 44.5003C168.2 48.4003 168.2 48.4003 167.1 51.7003C168.5 51.5003 169.9 51.4003 172.1 51.2003C169.2 53.0003 167 54.3003 164.9 55.7003C165.6 56.9003 166.1 57.9003 167.1 59.7003C163.1 57.3003 160.3 56.3003 159.6 61.4003C159.5 62.4003 158.4 63.4003 157.8 64.3003C158.5 58.4003 159.3 52.6003 160.1 45.7003C160.9 45.0003 162.8 43.5003 164.6 42.1003C155.8 45.7003 147.5 50.1003 139.4 54.9003C126.6 62.4003 114.6 71.0003 104.2 81.6003C96.5 89.4003 89.2 97.8003 82 106.2C80.6 107.8 80.3 110.3 79.4 112.4C78.9 113.5 78.1 114.4 77.3 115.3C76.2 116.4 74.7 117.1 73.6 118.2C70.5 121.6 67.2 125 64.5 128.8C58.4 137.4 52.5 146.2 46.6 155C39.3 165.7 38.9 178.9 34.2 190.6C32.4 195 32.2 200 30.7 204.5C28.2 211.9 27.8 219.6 27.6 227.3C27.6 227.7 28.1 228 27.6 227.4C29.3 221.6 31.2 215.1 33 208.6L33.1 209.1ZM120.2 281.9C120.4 281.5 120.5 281.1 120.7 280.6C119.9 279.7 119.1 278.8 118.2 277.9C113.6 273.8 108.8 270.1 104.5 265.7C100.1 261.1 95.3 259 90 260.9C88.7 261.4 87.7 262.7 86.5 263.7C86.8 264 87 264.4 87.3 264.7C89 264.1 90.6 263.4 92.3 263C93.3 262.8 94.4 263.3 95.4 263.5C93.5 267.2 97.4 265.5 98.3 266.6C99 267.4 100.2 267.7 101 268.5C104 271.3 106.9 274.3 109.9 277.3C109.5 278 109 278.9 108.5 279.9C112.7 280.6 116.5 281.3 120.2 281.9ZM333.6 105.7C335.3 105.7 336.9 105.3 338.2 105.8C343.6 107.6 347.9 104.9 352.1 102.4C353.1 101.8 353.1 99.6003 353.5 98.2003C350.7 97.6003 347.9 96.5003 345.1 96.5003C341.2 96.5003 337 98.7003 333.5 97.7003C330 96.7003 328.8 97.6003 327.1 100C331.1 100.3 333.2 102.2 333.6 105.7ZM143.3 293.4C140.8 290.8 139.1 287.9 136.7 286.8C132.9 285 128.5 284.3 124.4 283.1C125.2 285.4 125.9 287.6 127 290.8C123.5 289.8 121.2 289.2 118.9 288.5C118.8 289 118.6 289.4 118.5 289.9C122.4 291.2 126.3 292.5 129 293.3C134.1 293.4 138.1 293.4 143.3 293.4ZM360.5 50.1003C360.5 50.5003 360.5 50.9003 360.5 51.3003C363.4 52.0003 366.3 52.6003 369.2 53.3003C369.2 53.2003 369.2 53.0003 369.2 52.9003C371.4 53.8003 373.6 54.7003 375.8 55.6003C376.1 55.1003 376.3 54.7003 376.6 54.2003C374.3 52.0003 372.1 49.9003 370.2 48.1003C370.9 48.0003 372.6 47.7003 374.6 47.4003C374.1 46.3003 373.8 45.5003 373.8 45.5003C369.3 47.0003 364.9 48.6003 360.5 50.1003ZM190.4 49.1003C190.6 48.2003 190.7 47.2003 190.9 46.2003C190.5 45.9003 190.2 45.6003 189.8 45.3003C187.7 46.9003 185.5 48.6003 183.4 50.2003C187.2 50.5003 190.7 54.7003 194.7 49.9003C192.7 49.6003 191.6 49.3003 190.4 49.1003Z" stroke="#F2E8CF" stroke-width="5" stroke-miterlimit="10"/>
</svg>
