<?xml version="1.0" encoding="UTF-8"?>
<svg id="_图层_2" data-name="图层 2" xmlns="http://www.w3.org/2000/svg" viewBox="0 0 334.46 246.13">
  <defs>
    <style>
      .cls-1 {
        fill: #f2e8cf;
        stroke-width: 0px;
      }
    </style>
  </defs>
  <g id="_图层_1-2" data-name="图层 1">
    <g>
      <path class="cls-1"
        d="M167.06,143.54l1.23-.05.05,6.64h-1.23l-.05-6.59ZM163.56,150.13l.3-6.64,1.23.05-.25,6.64-1.28-.05ZM170.21,143.49l1.23-.05.39,6.64-1.23.1-.39-6.69ZM160.12,149.88l.49-6.64,1.28.1-.54,6.64-1.23-.1ZM173.4,143.24l1.23-.15.64,6.64-1.23.1-.64-6.59ZM156.63,149.49l.89-6.59,1.23.15-.84,6.59-1.28-.15ZM176.55,142.9l1.23-.2.98,6.59-1.18.15-1.03-6.54ZM153.18,148.95l1.18-6.54,1.28.2-1.23,6.54-1.23-.2ZM179.7,142.36l1.23-.25,1.33,6.54-1.23.2-1.33-6.5ZM149.79,148.21l1.43-6.5,1.23.3-1.43,6.5-1.23-.3ZM182.8,141.72l1.23-.3,1.62,6.45-1.23.3-1.62-6.45ZM146.39,147.37l1.72-6.4,1.23.3-1.77,6.4-1.18-.3ZM185.95,140.88l1.18-.34,1.87,6.4-1.18.34-1.87-6.4ZM143.04,146.29l2.07-6.3,1.18.39-2.07,6.35-1.18-.44ZM188.95,139.89l1.18-.39,2.17,6.3-1.18.39-2.17-6.3ZM139.75,145.11l2.41-6.2,1.18.44-2.41,6.2-1.18-.44ZM191.96,138.81l1.13-.49,2.51,6.15-1.18.49-2.46-6.15ZM136.5,143.78l2.61-6.1,1.18.49-2.61,6.1-1.18-.49ZM194.91,137.58l1.13-.54,2.76,6-1.13.54-2.76-6ZM133.35,142.26l2.9-5.95,1.13.54-2.9,6-1.13-.59ZM197.76,136.25l1.13-.59,3.05,5.9-1.08.59-3.1-5.9ZM130.25,140.63l3.2-5.81,1.08.59-3.2,5.86-1.08-.64ZM200.57,134.73l1.08-.64,3.35,5.76-1.08.64-3.35-5.76ZM127.25,138.86l3.49-5.66,1.08.64-3.49,5.71-1.08-.69ZM203.32,133.1l1.03-.69,3.64,5.56-1.03.69-3.64-5.56ZM124.3,136.94l3.74-5.46,1.03.69-3.74,5.46-1.03-.69ZM205.98,131.28l1.03-.74,3.84,5.46-1.03.74-3.84-5.46ZM121.49,134.88l4.03-5.31.98.74-3.99,5.31-1.03-.74ZM208.59,129.41l.98-.79,4.08,5.27-.98.79-4.08-5.27ZM118.74,132.71l4.18-5.17.98.79-4.18,5.17-.98-.79ZM211.05,127.4l.93-.79,4.28,5.02-.93.79-4.28-5.02ZM116.13,130.4l4.43-4.92.93.84-4.43,4.92-.93-.84ZM213.41,125.33l.93-.84,4.58,4.82-.93.84-4.58-4.82ZM113.57,127.99l4.67-4.77.89.89-4.67,4.72-.89-.84ZM215.72,123.12l.89-.89,4.77,4.63-.89.89-4.77-4.63ZM111.21,125.43l4.92-4.48.84.93-4.87,4.48-.89-.93ZM217.89,120.75l.84-.93,4.97,4.38-.84.93-4.97-4.38ZM108.89,122.77l5.12-4.28.79.93-5.07,4.28-.84-.93ZM219.95,118.34l.79-.98,5.22,4.13-.79.98-5.22-4.13ZM106.73,120.02l5.31-3.99.74.98-5.31,4.03-.74-1.03ZM221.92,115.83l.74-1.03,5.41,3.84-.74,1.03-5.41-3.84ZM104.71,117.11l5.46-3.74.74,1.03-5.51,3.74-.69-1.03ZM223.79,113.18l.69-1.03,5.56,3.74-.69,1.03-5.56-3.74ZM102.79,114.21l5.66-3.49.64,1.08-5.66,3.49-.64-1.08ZM225.51,110.52l.64-1.08,5.71,3.4-.64,1.08-5.71-3.4ZM101.07,111.21l5.81-3.3.59,1.08-5.76,3.3-.64-1.08ZM227.09,107.76l.59-1.13,5.86,3.15-.59,1.08-5.86-3.1ZM99.45,108.11l5.95-3,.54,1.08-5.95,3-.54-1.08ZM228.52,104.91l.54-1.13,6,2.85-.54,1.13-6-2.85ZM97.97,104.91l6.05-2.76.54,1.13-6.1,2.71-.49-1.08ZM229.84,102.05l.49-1.18,6.15,2.51-.44,1.18-6.2-2.51ZM96.69,101.66l6.2-2.41.44,1.18-6.2,2.41-.44-1.18ZM231.03,99.05l.44-1.18,6.25,2.26-.39,1.18-6.3-2.26ZM95.51,98.36l6.3-2.07.39,1.18-6.3,2.12-.39-1.23ZM232.11,96.05l.39-1.18,6.35,2.02-.39,1.18-6.35-2.02ZM94.53,94.97l6.4-1.77.34,1.18-6.4,1.77-.34-1.18ZM232.99,93l.3-1.23,6.45,1.67-.34,1.18-6.4-1.62ZM93.69,91.57l6.45-1.48.3,1.18-6.5,1.48-.25-1.18ZM233.73,89.9l.25-1.23,6.5,1.33-.25,1.23-6.5-1.33ZM92.95,88.18l6.54-1.23.25,1.23-6.54,1.23-.25-1.23ZM234.37,86.8l.2-1.23,6.59,1.03-.2,1.23-6.59-1.03ZM92.46,84.73l6.54-.93.2,1.23-6.54.89-.2-1.18ZM234.81,83.6l.15-1.28,6.59.79-.15,1.23-6.59-.74ZM92.07,81.19l6.64-.54.1,1.23-6.59.59-.15-1.28ZM235.16,80.4l.1-1.23,6.64.44-.1,1.23-6.64-.44ZM91.87,77.75l6.64-.3.05,1.23-6.59.3-.1-1.23ZM235.31,77.89l.05-1.23,6.64.2-.05,1.28-6.64-.25ZM91.87,75.48v-1.23h6.64v1.23h-6.64ZM235.36,73.47l6.64-.1v1.23l-6.64.1v-1.23ZM91.92,71.99l.05-1.28,6.64.34-.05,1.23-6.64-.3ZM235.21,70.32l6.64-.44.1,1.23-6.64.44-.1-1.23ZM92.12,68.5l.15-1.23,6.59.59-.1,1.23-6.64-.59ZM234.91,67.12l6.59-.69.15,1.23-6.64.69-.1-1.23ZM92.51,65l.15-1.23,6.59.93-.15,1.23-6.59-.93ZM234.47,63.92l6.59-.98.15,1.23-6.59.98-.15-1.23ZM93.1,61.56l.25-1.18,6.54,1.28-.25,1.23-6.54-1.33ZM233.88,60.82l6.5-1.33.25,1.23-6.5,1.33-.25-1.23ZM93.79,58.16l.3-1.23,6.45,1.53-.3,1.18-6.45-1.48ZM233.14,57.72l6.45-1.67.3,1.18-6.45,1.67-.3-1.18ZM94.62,54.77l.34-1.23,6.4,1.82-.34,1.18-6.4-1.77ZM232.26,54.67l6.35-1.92.39,1.18-6.35,1.97-.39-1.23ZM95.71,51.42l.39-1.18,6.3,2.17-.39,1.18-6.3-2.17ZM231.22,51.62l6.3-2.17.39,1.18-6.3,2.21-.39-1.23ZM96.89,48.08l.44-1.18,6.2,2.46-.44,1.13-6.2-2.41ZM230.04,48.62l6.15-2.46.49,1.13-6.15,2.51-.49-1.18ZM98.22,44.83l.49-1.13,6.05,2.8-.54,1.13-6-2.8ZM228.76,45.76l6.05-2.8.54,1.13-6,2.8-.59-1.13ZM99.69,41.73l.54-1.08,5.95,3-.54,1.08-5.95-3ZM227.29,42.91l5.9-3.05.59,1.08-5.9,3.1-.59-1.13ZM101.32,38.63l.59-1.08,5.81,3.3-.64,1.08-5.76-3.3ZM225.71,40.1l5.76-3.35.64,1.03-5.71,3.35-.69-1.03ZM103.09,35.58l.64-1.03,5.66,3.54-.69,1.03-5.61-3.54ZM224.04,37.45l5.56-3.64.69,1.03-5.56,3.59-.69-.98ZM105.01,32.67l.74-1.03,5.41,3.84-.69,1.03-5.46-3.84ZM222.22,34.79l5.41-3.89.74,1.03-5.41,3.89-.74-1.03ZM107.07,29.82l.79-.98,5.27,4.08-.79.98-5.27-4.08ZM220.3,32.28l5.22-4.13.79.98-5.22,4.13-.79-.98ZM109.24,27.06l.79-.93,5.07,4.33-.79.93-5.07-4.33ZM218.23,29.82l5.02-4.33.84.93-5.02,4.38-.84-.98ZM111.55,24.41l.84-.93,4.82,4.58-.84.93-4.82-4.58ZM216.07,27.51l4.82-4.58.89.89-4.82,4.58-.89-.89ZM113.96,21.95l.89-.89,4.67,4.72-.89.89-4.67-4.72ZM213.8,25.29l4.58-4.82.89.89-4.58,4.82-.89-.89ZM116.47,19.54l.93-.84,4.43,4.92-.93.84-4.43-4.92ZM211.39,23.13l4.33-5.02.93.79-4.33,5.07-.93-.84ZM119.13,17.22l.98-.79,4.18,5.17-.98.79-4.18-5.17ZM208.93,21.06l4.18-5.17.93.79-4.13,5.17-.98-.79ZM121.89,15.06l1.03-.74,3.94,5.36-.98.74-3.99-5.36ZM206.37,19.19l3.94-5.36.98.74-3.94,5.36-.98-.74ZM124.74,13.04l1.03-.69,3.69,5.51-1.08.69-3.64-5.51ZM203.72,17.42l3.69-5.56,1.03.69-3.64,5.56-1.08-.69ZM127.69,11.12l1.03-.64,3.4,5.71-1.03.64-3.4-5.71ZM201.01,15.75l3.35-5.71,1.08.59-3.4,5.71-1.03-.59ZM130.69,9.35l1.08-.59,3.15,5.86-1.08.59-3.15-5.86ZM198.2,14.27l3.1-5.9,1.08.59-3.1,5.9-1.08-.59ZM133.84,7.73l1.13-.54,2.85,6-1.13.54-2.85-6ZM195.3,12.84l2.85-6,1.13.54-2.8,6-1.18-.54ZM136.94,6.25l1.13-.49,2.66,6.1-1.13.49-2.66-6.1ZM192.4,11.61l2.51-6.15,1.13.49-2.51,6.15-1.13-.49ZM140.19,4.97l1.18-.44,2.31,6.25-1.13.44-2.36-6.25ZM189.4,10.48l2.21-6.25,1.18.39-2.21,6.25-1.18-.39ZM143.54,3.79l1.18-.39,2.02,6.35-1.18.34-2.02-6.3ZM186.4,9.5l1.92-6.4,1.18.34-1.92,6.4-1.18-.34ZM146.88,2.76l1.18-.3,1.72,6.45-1.18.3-1.72-6.45ZM183.3,8.66l1.67-6.4,1.18.3-1.62,6.45-1.23-.34ZM150.28,1.92l1.23-.3,1.38,6.5-1.18.25-1.43-6.45ZM180.2,7.97l1.33-6.5,1.23.25-1.33,6.5-1.23-.25ZM153.67,1.23l1.23-.2,1.13,6.54-1.23.2-1.13-6.54ZM177.05,7.48l1.03-6.54,1.23.15-1.03,6.54-1.23-.15ZM157.17.69l1.23-.15.84,6.59-1.23.15-.84-6.59ZM173.85,7.04l.74-6.59,1.23.15-.74,6.64-1.23-.2ZM160.61.34l1.28-.1.49,6.64-1.23.1-.54-6.64ZM170.65,6.79l.44-6.64,1.23.1-.44,6.64-1.23-.1ZM164.15.1l1.23-.05.15,6.64h-1.23l-.15-6.59ZM167.5,6.69l.1-6.69h1.28l-.1,6.69h-1.28Z" />
      <path class="cls-1"
        d="M263.35,242.84c.84.93,2.95,3.25,7.43,3.25,4.97,0,8.17-2.95,8.17-6.89,0-3.1-2.66-5.27-4.38-6v-.1c1.62-.74,3.74-2.9,3.74-5.66,0-4.03-3.35-6.59-7.53-6.59-3.94,0-6.69,3.15-6.69,3.15-.25.3-.3.69,0,.93l1.33,1.18c.3.3.74.2.93-.1.74-.79,2.02-2.02,4.18-2.02s4.13,1.53,4.13,3.94c0,2.12-1.72,3.84-5.07,3.84h-2.02c-.49,0-.74.25-.74.79v1.57c0,.49.3.74.69.74h2.02c3.89,0,5.71,2.07,5.71,4.23,0,2.41-2.17,3.89-4.53,3.89-2.71,0-4.67-1.92-4.92-2.21-.3-.34-.64-.34-.98-.05l-1.43,1.33c-.25.15-.25.54-.05.79M252.58,242.84c-3.94,0-5.27-4.13-4.97-7.13.2-.64,2.07-2.76,4.92-2.76,2.71,0,4.82,2.21,4.82,4.92-.05,2.71-2.12,4.97-4.77,4.97M244.07,235.95c0,5.56,2.76,10.09,8.51,10.09,4.38,0,8.07-3.74,8.07-8.27,0-4.97-3.74-7.82-7.58-7.82-2.41,0-4.53,1.18-4.77,1.33,1.18-4.43,6.94-7.43,8.61-7.97.69-.2.84-.59.64-1.03l-.59-1.48c-.15-.39-.49-.54-.93-.44-3.35,1.28-11.96,5.51-11.96,15.6M227.43,239.24c0-1.92,1.67-3.94,4.58-4.33,2.95.44,4.58,2.41,4.58,4.33,0,2.41-2.07,3.94-4.63,3.94-2.36-.05-4.53-1.57-4.53-3.94M232.01,231.42c-2.8-.44-4.03-1.92-4.03-3.84,0-2.21,1.77-3.79,3.94-3.79,2.36,0,4.13,1.57,4.13,3.79,0,1.87-1.23,3.44-4.03,3.84M223.64,239.14c0,3.94,3.2,6.94,8.27,6.94s8.41-3,8.41-6.94c0-3.1-2.71-5.27-4.38-6.05v-.1c1.57-.79,3.69-2.8,3.69-5.56,0-3.99-3.3-6.59-7.73-6.59s-7.68,2.66-7.68,6.59c0,2.8,2.17,4.82,3.74,5.61v.1c-1.28.54-4.33,2.85-4.33,6M206.37,245.69h12.55c.39,0,.69-.3.69-.64v-1.57c0-.39-.3-.69-.69-.69h-3.99v-20.96c0-.34-.3-.69-.64-.69h-1.77l-5.36,4.82c-.15.15-.2.44-.1.74l.44,1.28c.1.3.49.39.79.25l3.15-1.57v16.19h-5.02c-.39,0-.69.3-.69.69v1.57c-.1.3.2.59.64.59M173.45,233.09c0-5.12,4.23-9.45,9.35-9.45s9.4,4.33,9.4,9.45-4.23,9.35-9.4,9.35-9.35-4.18-9.35-9.35M169.86,233.09c0,7.23,5.71,12.99,12.94,12.99s12.99-5.76,12.99-12.99-5.81-13.04-12.99-13.04-12.94,5.81-12.94,13.04M143.68,245c0,.39.34.69.69.69h2.26c.39,0,.69-.3.69-.69v-17.57h.05l15.65,18.65h.93c.34,0,.69-.3.69-.64v-24.31c0-.34-.34-.69-.69-.69h-2.31c-.39,0-.69.3-.69.69v17.07h-.05l-15.65-18.11h-.89c-.34,0-.69.3-.69.64v24.26ZM123.71,237.13l4.43-9.89h.2l4.43,9.89h-9.05ZM117.01,245.69h2.31c.44,0,.74-.3.84-.54.74-1.67,1.48-3.3,2.21-4.97h11.81l2.21,4.97c.1.34.39.54.84.54h2.26c.54,0,.84-.44.59-.93l-11.02-24.26c-.1-.25-.39-.39-.59-.39h-.39c-.15,0-.49.15-.59.39l-11.07,24.26c-.25.49.05.93.59.93M99.99,245c0,.39.3.69.69.69h12.84c.39,0,.69-.3.69-.69v-2.02c0-.34-.3-.69-.69-.69h-9.79v-21.26c0-.34-.34-.69-.69-.69h-2.36c-.39,0-.69.3-.69.69v23.96h0ZM89.21,245c0,.39.34.69.69.69h2.36c.34,0,.69-.3.69-.69v-23.91c0-.34-.34-.69-.69-.69h-2.36c-.34,0-.69.3-.69.69v23.91ZM56.14,244.9c-.1.54.2.84.69.84h2.31c.3,0,.59-.25.64-.49l2.61-16.14h.15l6.54,16.63c.05.2.34.39.59.39h.64c.34,0,.54-.2.59-.39l6.5-16.63h.1l2.66,16.14c.1.25.39.49.69.49h2.31c.54,0,.79-.3.69-.84l-4.43-24.26c-.05-.3-.34-.54-.64-.54h-.59c-.25,0-.54.15-.64.39l-7.43,18.4h-.15l-7.53-18.4c-.1-.25-.39-.39-.64-.39h-.54c-.3,0-.59.25-.69.54l-4.43,24.26Z" />
      <path class="cls-1"
        d="M304.05,185.31c0-6.5,5.31-11.91,11.81-11.91s11.86,5.41,11.86,11.91-5.36,11.81-11.86,11.81-11.81-5.31-11.81-11.81M297.36,185.31c0,10.28,8.22,18.5,18.5,18.5s18.6-8.22,18.6-18.5-8.27-18.65-18.6-18.65-18.5,8.32-18.5,18.65M261.39,185.31c0,10.28,8.32,18.5,18.6,18.5,4.63,0,9.05-1.62,12.55-5.02.39-.34.49-1.03.05-1.38l-3.2-3.3c-.3-.3-.84-.39-1.28,0-2.17,1.72-4.82,2.9-7.92,2.9-6.59,0-11.56-5.46-11.56-11.91s4.92-12.01,11.51-12.01c2.9,0,5.76,1.13,7.92,3.05.39.39.93.39,1.28,0l3.15-3.25c.39-.39.39-1.03-.05-1.43-3.49-3.15-7.23-4.82-12.5-4.82-10.24,0-18.55,8.32-18.55,18.65M247.85,202.34c0,.54.49.93.98.93h4.82c.49,0,.98-.44.98-.93v-34.15c0-.54-.44-.98-.98-.98h-4.82c-.54,0-.98.49-.98.98v34.15ZM208.54,202.34c0,.54.44.93.98.93h4.72c.54,0,.98-.44.98-.93v-22.19h.05l21.55,23.67h1.23c.49,0,.93-.39.93-.93v-34.69c0-.54-.44-.98-.93-.98h-4.77c-.59,0-.98.49-.98.98v21.31h-.05l-21.45-22.78h-1.28c-.54,0-.98.39-.98.93v34.69h0ZM170.5,185.31c0,10.28,8.32,18.5,18.65,18.5,4.58,0,9-1.62,12.55-5.02.39-.34.44-1.03.05-1.38l-3.2-3.3c-.3-.3-.89-.39-1.28,0-2.17,1.72-4.82,2.9-7.92,2.9-6.59,0-11.56-5.46-11.56-11.91s4.92-12.01,11.51-12.01c2.9,0,5.76,1.13,7.92,3.05.39.39.93.39,1.28,0l3.15-3.25c.39-.39.39-1.03-.05-1.43-3.49-3.15-7.28-4.82-12.5-4.82-10.28,0-18.6,8.32-18.6,18.65M142.31,202.34c0,.54.39.93.93.93h21.06c.59,0,.98-.44.98-.93v-4.23c0-.54-.39-.98-.98-.98h-15.25v-9.05h12.74c.54,0,.98-.39.98-.98v-4.28c0-.54-.49-.98-.98-.98h-12.74v-8.46h15.25c.59,0,.98-.44.98-.98v-4.18c0-.54-.39-.98-.98-.98h-21.01c-.54,0-.93.49-.93.98v34.15h-.05ZM120.8,202.34c0,.54.49.93.98.93h4.77c.49,0,.98-.44.98-.93v-28.93h7.92c.59,0,.98-.44.98-.98v-4.18c0-.54-.39-.98-.98-.98h-22.54c-.54,0-.98.49-.98.98v4.18c0,.54.44.98.98.98h7.92v28.93h-.05ZM98.66,202.34c0,.54.44.93.98.93h4.82c.49,0,.98-.44.98-.93v-34.15c0-.54-.44-.98-.98-.98h-4.82c-.54,0-.98.49-.98.98v34.15ZM71.1,202.34c0,.54.39.93.98.93h18.9c.54,0,.98-.44.98-.93v-4.23c0-.54-.44-.98-.98-.98h-13.14v-28.93c0-.54-.44-.98-.98-.98h-4.72c-.54,0-.98.49-.98.98v34.15h-.05ZM35.33,185.31c0-6.5,5.31-11.91,11.81-11.91s11.86,5.41,11.86,11.91-5.36,11.81-11.86,11.81-11.81-5.31-11.81-11.81M28.59,185.31c0,10.28,8.22,18.5,18.55,18.5s18.55-8.22,18.55-18.5-8.27-18.65-18.55-18.65-18.55,8.32-18.55,18.65M6.74,183.89v-10.38h5.95c2.9,0,5.31,2.17,5.31,5.02,0,3.05-2.41,5.36-5.31,5.36h-5.95ZM.05,202.34c0,.54.39.93.98.93h4.77c.54,0,.98-.44.98-.93v-12.15h6.4c6.3,0,11.47-5.22,11.47-11.61s-5.17-11.42-11.51-11.42H.98c-.54,0-.98.49-.98.98v34.2h.05Z" />
      <path class="cls-1"
        d="M186.84,64.71l-2.95.64c-.2.05-.3.2-.25.39.05.2.2.3.39.25l1.03-.2.25.3s.2.1.25.1c.1,0,.2-.05.25-.1.15-.15.15-.34.05-.49h0l1.13-.25c.2-.05.3-.2.3-.39-.05-.15-.2-.3-.44-.25" />
      <path class="cls-1"
        d="M224.24,108.11c-1.13-.15-2.66-3.94-2.56-7.53,0-.93.1-1.92.3-2.76.84-3.49,3.25-11.91,3.25-21.9,0-2.17-.1-4.38-.34-6.64-.79-6.64-1.67-11.51-3.1-15.06h0c.69-.98,1.33-2.17,1.33-3.25,0-2.17-1.82-5.56-5.51-5.56-.34,0-.69.05-1.03.1l-2.31.69c-1.92-1.43-3.74-1.57-4.97-1.57h-.74c-.39,0-.64-.05-.74-.1-.05,0-.79-.34-1.82-.34-.25,0-.49.05-.79.1h-.05c-1.08-.2-2.12-.25-3.15-.25s-2.07.05-3.1.2c-.15-.25-.79-1.23-2.21-2.31v-.44c-.05-1.18-1.18-3.05-1.18-3.05-2.9-4.87-7.38-6.64-7.92-6.89.15-.59.3-1.67.3-2.21v-.25h-.15.15c0-.15.25-.69.34-1.28v-.15c-.05-.84-.93-2.46-1.43-3.54-.59-1.18-1.97-1.33-2.41-1.38-1.28-1.23-3.15-1.38-4.08-1.38h-.59c-.1.05-2.41.54-2.95.98-.25.2-.89.84-1.48,1.48-.69-.39-1.43-.59-2.07-.59-1.62,0-2.8.89-3,.98,0-.05-1.23.1-1.97.25-.89.1-1.62.49-3.4,2.66-.89,1.03-1.13,2.07-1.13,2.9,0,.79.25,1.38.34,1.57-.79.25-1.48.79-1.87,1.13-.64.64-.69,2.17-.69,2.71h-.25c-1.48.1-2.76.89-2.76.93,0,.1-1.03.2-1.28.98,0,.1.05.2.05.2.1.3.64.89,1.62.89h.05c.74.05,1.08-.2,1.18-.39t.05-.05c.3.39,2.31,2.26,2.36,2.26.05.05.79.54,1.82.54.44,0,.98-.1,1.48-.44.79-.64,1.82-.44,2.21-1.33.34-.05,1.18-.25,1.72-.54.2-.1.49-.3.69-.59h0c.05-.1.98-1.08,1.18-.98v.05c.74,1.82.93,3.4.93,4.67,0,2.56-.93,3.94-.93,3.94-.15.2-.69,1.53-1.08,2.41-.2-.44-.54-.69-.74-.79-.1-.39-.39-.69-.59-.84v-.05c-.1-1.23-1.33-1.33-1.13-1.38-.3-.79-1.33-1.18-1.33-1.18-.44-.74-1.72-.84-1.72-.89h-.15c-.59,0-1.77.49-2.12.59h-.49c-.3,0-.64,0-1.03.2h-.39c-.64,0-1.82.25-2.51,1.62,0,0-.84.59-1.33,1.38,0,.05-1.33,3.94-1.53,5.41-.2,1.53-.1,1.08-.2,1.48-.05.34-2.02,2.07-2.02,3.49,0,.25.05.49.15.69-1.13.84-4.67,3.94-4.67,10.48,0,.64.05,1.33.1,2.07-1.48-.59-3.05-1.03-3.44-1.13-.25-.34-.64-.44-.84-.54-.3-.1-1.53-.64-1.67-.89-.44-.49-1.28-.69-1.82-.74h0c-.39-.3-1.33-2.17-1.72-3.69-.54-1.67-.93-3.74-.93-5.9v-.2l-.2-.1h.2c0-2.41-1.57-5.41-2.02-6.5-.05-.05-.05-.15-.1-.2l2.17-1.08c0,.2-.05.44-.05.64,0,.34.05.74.25,1.08,0,0,1.18,3.2,4.72,3.49.34,0,3.4.15,3.4.15h.1c.74.39,1.62.89,2.66.89.59,0,1.18-.15,1.72-.54,0,0,.93-.49.93-1.82,0-.1,0-.3-.05-.44.3-.2.69-.59.74-1.28,0-.2-.05-.39-.2-.64l-.25-.44,1.18-.2c.05-.1.93-.2,1.08-1.03,0,0,0-.1-.05-.2l-.25-.25s-1.57-.3-1.87-.3c-.15,0-1.97-.3-1.97-.3l-.74.1-.79-.2h0c-.3-.89-1.82-1.97-2.31-2.36.25-.1.44-.3.59-.49.1-.49.1-1.33.1-1.72v-.2s0-.1-.05-.15c.64-.93.74-2.02.74-2.66l1.57.84s1.18.69,1.97.69h.05c.74-.05.93-.69.89-.89l.25-.3c.34-.15.49-.34.59-.54.2,0,.59-.05.89-.2.15-.1.3-.25.39-.39.15.1.3.2.54.2.39,0,.74-.39.79-.84.25-1.13,1.28-3.59,1.48-4.18.1-.3.2-.44.3-.54.25.1.49.15.79.15h.2c1.13-.1,1.38-.93,1.38-1.18,0-.05.25-.84.25-1.62,0-.84-.3-1.92-1.38-2.36-.25-.49-1.18-2.12-2.95-2.17h-.34c-.49-.34-2.41-1.57-4.53-1.57-.25,0-.54,0-.79.05.05,0-1.13-.25-2.41-.25-1.38,0-3.15.2-3.49,1.62-.79.15-3.25.54-3.54,1.92-.15,0-.34.05-.44.15-.39.2-1.13.79-1.18,1.67-1.33-.59-2.61-.69-3.25-.69h-.39s-1.82-.2-3.79-.2c-1.03,0-2.12.05-2.95.25-2.31.54-5.22,1.08-6.5,1.82-1.28.79-2.41,3.05-3.25,3.49-.93.54-2.56,1.18-3.05,3.1-.05.2-.1.49-.15.79-.39.1-2.95.98-5.36,5.36,0,0-1.62,1.97-2.17,2.41-.34.3-.39.74-.39,1.23,0,.89.3,1.87.74,2.36.15.1.49.54.98.98-.2.3-.44.79-.44,1.48,0,.74.2,1.67.93,2.85-.74.54-2.41,2.21-3,7.09,0,0-.3,6.05-1.08,8.37-1.43,3-4.63,6.3-4.63,6.3-.05.05-.44.49-.44,1.18,0,.39.15.89.64,1.33l2.36,1.67s.1.05.2.05c0,.1.05.2.05.25.34.59,1.08.64,2.02.98.84.25,1.57.39,1.92.44.15.15.34.2.59.2,1.43.05,2.07,0,2.56.59.3.3.59.64.98.84.1.05.49.15,1.08.2-.98.59-1.97,1.48-2.17,2.61-.05.59-.3,1.62-.3,2.66,0,1.53.59,3.2,2.95,3.2h.05l.25-.05s1.28-.69,2.07-1.38c.1.59.34,2.17,1.08,3.1.05.05.05.1.1.1-.05.2-.15.84-.15,1.67,0,1.33.3,3.25,1.72,4.72-.2.2-.59.69-.64,1.38-.05.74-.05,2.07-.59,3.25-.59,1.23-1.67,3.89-1.72,4.87,0,0,0,.1.05.2.05.39.49,1.18.84,1.97.2.39.44.79.59,1.03.1.15.15.25.2.34,0,.05.05.05.05.1.2.44.44.64.74.84.2.05.69.15.93.15v-.05l.1-.1v.15h.05c.1,0,.39.05.54.05.05,0,.15,0,.2-.05.2-.1.74,0,.93-.69v-.34h0c.34-.3.79-.74.89-1.33.05-.15-.1-.39-.34-.44-.2-.1-.74-.25-.98-.34-.39-.15-.54-.15-.54-.25-.15-.25-.2-.39-.2-.49v-.1c.1-.2.44-.54.69-.69.15-.15,3.1-2.12,3.54-2.17h.05c.59.15,1.62.39,1.92.74.54.49,4.63,3.94,5.66,4.43.84.39,4.48,2.61,6.45,2.85,1.77.2,4.97.89,6.3,1.23.69.2,1.82.39,2.9.39s2.26-.2,3.05-1.08c1.18-1.43,1.87-1.53,2.02-2.71.05-.49.2-1.57.2-2.66,0-.84-.1-1.72-.49-2.36-.79-1.33-1.53-2.21-1.53-2.21-.05-.05-.05-.1-.1-.1v-.05c.05-.3.1-.59.1-.84,0-1.43-.79-2.41-.84-2.66-.05-.2-.44-1.33-.89-2.76-.25-.79-.54-1.62-.79-2.46.2-.2,1.03-.89,1.87-1.77.3.3,5.66,6.05,7.92,6.54.05,0,.1.05.2.05,0,0,2.41-.05,4.67-.84,1.77-.59,2.95-1.67,4.13-1.62.34,0,.74.05,1.18.3,0,.05.05.1.05.15.1.25.3.44.54.69l.3,4.48v.05c0,.25,0,1.08.69,1.33l-.64,4.48-11.07,2.61c-.1,0-.15.05-.2.1,0,0-.05,0-.05.05-.05.1-.1.15-.05.3v2.76l.25.34,10.92,3.69h.2l19.98-5.86c.15-.05.25-.2.25-.34v-2.85c0-.15-.1-.3-.3-.34l-11.47-2.36-1.77.39-1.28-8.32.05-.05c.49-.64,1.03-1.67,1.03-3,0-.34-.05-.79-.15-1.18-.39-1.62-.54-2.51-.54-3.15,0-.49.1-.79.2-1.13.05-.34,3.79-4.87,6.3-9.4,0,1.57-.05,4.18-.05,5.36v.64c0,.2.05.59.05,1.03,0,.84-.1,1.97-.44,2.36-.64.93-1.33,2.36-1.33,3.25,0,0,0,.1.05.25,0,.2.05.59.05.93,0,.44-.05.84-.1.98-.1.34-.79,2.41-.79,2.41,0,.05-.05.2-.05.39-.05.54.2,1.82,1.62,1.97.69.1,1.53.15,2.26.15,1.03,0,1.97-.1,2.56-.34.79-.44,1.48-1.13,1.53-1.92,0-.1,0-.25-.1-.39-.34-.69-.98-1.08-1.33-1.57-.34-.39-.74-1.23-.74-1.72v-.15s.25-.84.3-1.33v-.05h0v-.05c0-.1-.05-.39-.05-.69,0-.59.1-1.38.25-1.53.39-.54,3.1-4.67,3.1-4.67.05-.05,1.38-2.07,1.82-7.77v-.05c1.48-.1,2.56-.15,3.05-.15l-.1.3-1.33,2.85s-2.26,4.33-2.66,5.41c-.25.64-1.18,2.46-1.18,5.12,0,1.28.25,2.8.84,4.38l.74,2.71c1.23,3.99,1.87,4.63,3.49,4.82h.1c-.15.54-.3,1.03-.39,1.23-.15.34-.49.93-.64,1.62-.1.3-.15.64-.15.98,0,.1,0,.2.05.3.1.93.1,2.07,1.18,2.26.15.05.3.05.44.05.59,0,1.23-.1,1.48-.15.3.1,1.08.39,1.62.39.25.05.54.05.84.05s.64-.05.93-.2c.34-.25,1.13-.49,1.53-.84.34-.3,1.38-1.03,1.43-1.97v-.05c-.1-.98-1.67-3.05-1.67-3.15,0,.05,0,0,0-.1,1.48.3,5.81.44,10.33.69,1.48.1,1.62.05,2.95.1.2,0,.44.05.74.05,3.4,0,9.64-.69,9.69-.69.15,0,.3-.15.34-.3.54-.1.39-.25.25-.3M207.75,45.37s.05-.05.05-.05h1.43c1.23,0,2.9.15,4.72,1.53l.34.05,2.41-.74c.3-.05.59-.05.89-.05,3.2,0,4.82,3,4.82,4.87.05,1.92-2.9,4.77-2.9,4.77l-3.05,2.51c-.74,1.38-3.59,2.95-4.77,3.69-6.94-1.92-8.86-4.77-8.86-7.58-.05-3.99,3.99-8.07,4.92-9M205.98,44.93c.44,0,.84.1,1.08.15-1.28,1.28-4.92,5.12-4.97,9.2,0,3.1,2.17,6.15,8.71,8.07-.79.39-1.57.59-2.36.59-.44,0-.84-.05-1.33-.15-4.58-.93-9-6.69-9.05-6.69-.05-.64-.15-1.23-.34-1.72.05-.05.1-.15.1-.25,0-.05,2.31-7.18,6.4-8.81.69-.3,1.23-.39,1.77-.39M201.99,44.73c.59,0,1.18.05,1.82.1-3.84,1.77-5.9,7.04-6.45,8.76-.98-1.43-2.56-1.77-3.54-1.72-.54,0-.89.05-.93.05h-.05c-.34-.05-.74-.05-.89-.1-.15,0-1.82-.69-2.41-.74-.05,0-.49-.15-.93-.3-.59-.25-1.28-.54-1.38-.64-.25-.15-.44-.15-.69-.15h-.3c.39-.44,1.33-1.33,2.51-1.87.44-.1,6.69-3.4,13.24-3.4M192.94,61.31c-.2-.05-.34.1-.39.3h0s-.3,1.82-.74,3.2c-.2.44-.3.74-.3.74-.2.34-.44.74-.64,1.03-1.33,1.82-2.41,2.17-3.05,2.17-.3,0-.54-.05-.64-.1l.39-.25c.15-.1.2-.3.1-.49-.1-.2-.34-.25-.49-.15l-.69.44s-.05.05-.1.1c-.34-.15-.74-.3-.74-.3l-.39.05-.69.69h-.1c-.49.1-1.13-1.43-1.33-1.97-.34-.64-.93-.89-1.28-.93-.1,0-.79-.15-.84-.15,0-.05-1.72-1.38-1.87-1.57-.79-.93-.98-2.31-.98-2.31-.1-.64-.15-1.28-.15-1.77v-.49c.15-3.05,1.53-4.38,1.53-4.38l1.23-1.08s.93-.84,1.08-.98c.1-.1,1.28-.54,1.82-.84.1-.1.59-.2,1.08-.15h.84c.39,0,2.12.39,2.17.44.15.05,1.62.93,1.62.93,0,0,.1.25.1.49,0,.15,0,.3-.05.44-.2.49-1.33,2.56-1.77,3.05-.25.2-.34.49-.34.74,0,.59.49.93.54,1.03,0,0,.05.05.05.2,0,.1-.05.2-.05.3s-.44.39-.64.89c-.1.25-.1.49-.1.79,0,.39.05.89.2,1.28.15.3.44.39.64.39.54,0,1.33-.44,1.48-.49q.1,0,.2-.05c.49-.1,1.33-.25,1.67-.89h0c.2-.1.64,0,1.08-.3.39-.34.89-1.18,1.03-1.33.25-.3.49-.79.59-.84.2-.2.34-.49.34-.79,0-.15-.05-.25-.1-.39.05-.05.1-.1.2-.15.25-.25.3-.49.3-.74s-.05-.44-.1-.69c-.15-.39-.84-1.33-.84-1.48,0-.05.2-.49.34-.79l-.2-.15h.2c-.15-.59-.59-.69-.84-.84.05-.1.1-.3.15-.49l.05-.15v-.05h.3c1.28.05,3.44.34,3.64,3.79v1.08s-.93,3.1-3.05,3.84c-.3.1-1.03.54-1.13.64-.05.05-.05.1-.1.1,0-.15.05-.3.05-.3.05-.15-.1-.3-.3-.34M189.4,69.04c-.69,1.03-1.38,2.07-1.77,2.46-.34.44-1.13.79-1.77,1.08-.54.2-1.03.34-1.03.34l-6.84.79-.44.1c-.2-.74-.79-2.66-1.03-3.89,0-.1-.05-.2-.05-.34-.05-1.28,1.53-3.35,1.72-3.44.39-.3.64-.84.74-1.18.64.54,1.82,1.48,1.82,1.48.2.05.89.25,1.13.25,0,0,.49.15.64.54.25.34.59,2.26,1.97,2.36.1,0,.2-.05.3-.05l.2-.1.64-.59c.34.1.98.44,1.13.49.1.05.49.25,1.03.25.49-.15,1.03-.25,1.62-.54M177.24,57.33v-.1c0-.15-.05-.25-.05-.34v-.1c.64-.49.54-1.33.93-1.87.15-.3.34-.44.69-.54,1.62-.44,1.23-1.87,1.82-1.82.93-.3,1.92-.98,2.12-1.03h0v.05-.05l.05.05c.54-.05,1.77-.54,2.02-.59.15-.05.59-.1.98-.15.3-.05.54-.05.74-.05h.3c.25.15.89.44,1.53.69.44.2.84.3,1.13.34.3,0,1.97.69,2.41.79.15,0,.44,0,.69.1.05,0,.15.05.2.05h0c-.05.1-.2.3-.2.64-.05.15.1.39.25.44.1.05.3.1.44.25.1.05.15.1.2.15h0s-.3.34-.34.79c0,0,0,.1.05.2.1.39.74,1.28.84,1.53.05.1.1.3.1.44s-.05.2-.05.2c-.15.15-.39.2-.49.69,0,.1.1.25.15.34v.05s-.1.25-.1.3c-.25.25-.49.69-.64.89-.2.25-.79,1.13-.93,1.23,0,.15-.89-.1-1.28.64l-.1.05c-.2.15-.79.34-.93.34h-.15c-.44.1-1.13.49-1.43.44v.05c-.1-.25-.15-.64-.15-.98,0-.25.05-.54.05-.59.05-.2.44-.44.64-.89.05-.15.1-.34.1-.54,0-.25-.05-.44-.2-.64-.15-.15-.39-.44-.34-.59q0-.1.1-.25c.69-.69,1.72-2.71,1.97-3.35.1-.2.1-.44.1-.64,0-.44-.1-.74-.3-.98-.3-.3-1.57-.93-1.92-1.13-.34-.15-1.92-.44-2.51-.49h-.89c-.49,0-1.03,0-1.43.3-.39.25-1.48.64-1.82.84-.3.2-1.18,1.03-1.18,1.03l-1.23,1.08s-1.48,1.43-1.72,4.33c-.05-.05-.1-.2-.1-.3v-.05c.05-.2.05-.34.05-.34,0-.3-.1-.64-.15-.89M194.91,38.73s1.08,1.92,1.08,2.71c-.79-.54-1.62-.98-2.61-1.38-.2-.05-.39,0-.49.2-.05.2,0,.39.2.49,1.08.44,2.12,1.03,2.9,1.62,1.18.84,1.82,1.62,2.12,2.02-4.58.74-8.37,2.56-9.4,3.05-3.2-2.31-3.54-4.53-3.54-5.56,0-.3.05-.44.05-.44.15-.2.3-.34.44-.54.3-.39.34-.93.34-1.38,0-.54-.1-1.08-.1-1.23h0s.15-.49.44-.74c.59-.59.44-1.72.54-2.02-.05,0,.25-.25.59-.54.1-.2.15-.34.15-.59,0-.59-.25-1.48-.3-1.72v-.05c0-.2.05-.3.1-.49.59.3,4.77,2.07,7.48,6.59M175.57,24.55s.1-.1.15-.1v-.05c.59-.64,1.28-1.33,1.48-1.53.15-.15,2.56-.79,2.66-.79.05,0,.2-.05.44-.05.89,0,2.66.15,3.64,1.23l.2.1s1.67.15,1.97.98c.49,1.08,1.38,2.85,1.38,3.25v.1c-.05.34-.34.79-.39,1.33v.2c0,.49-.15,1.87-.25,2.17-.05.1-.05.15-.1.2-.1.3-.25.64-.25.98,0,0,0,.1.05.25.05.34.3,1.18.3,1.62,0,.1-.05.1-.05.1-.15.25-.59.39-.69.98.05.25-.1,1.48-.25,1.48-.44.34-.64.84-.69,1.18v.05c0,.25.1.69.1,1.28,0,.39-.05.79-.2.93-.1.15-.25.3-.34.34-.15,0-.44,0-.69.25l-.39.25-.15.2s-.1.39-.2.79c-.05.1-.05.3-.1.39-.2-.25-.39-.59-.54-.79l.69-2.46.34-3.3v-.15l2.51-3.99c.05-.2.05-.25.05-.25-.05-.59-.2-1.77-.69-2.26-.25-.2-1.18-1.33-1.13-1.43-.05-.39-.34-1.57-.34-1.57-.05-.15-.1-.25-.2-.25-.1-.05-.25,0-.34.05,0,0-1.87,1.57-2.21,1.72,0,0-.2.05-.39.05-.54,0-1.28-.15-1.57-.15h-.05c-.49.05-1.33.2-1.67.84-.2.34-.93,1.72-1.08,1.92-.3.49-.49,1.72-.49,2.51,0,.25-.1.44-.3.69-.15.25-.3.44-.44.74-.05.15-.1.3-.1.49,0,.44.15.79.25,1.33v.54c0,.64-.1,1.43-.15,1.67,0,0-.05,0-.1.05-.1.05-.25.05-.34.05h-.1c-.15,0-.3.05-.44.1.05-.2.1-.39.1-.49v-.1c-.05-.54-.69-1.82-.79-2.26-.15-.39-.59-3.84-.59-4.63v-.05c0-.64.79-2.8.89-3.3.05-.3.64-2.02.98-2.66.1-.15.34-.49.64-.79M182.11,33.61s.2.1.44.25l-.05.2c-.05.2.05.39.25.44.2.05.39-.05.44-.25v-.15c.25.1.54.15.84.2l-.98,1.53s-.05.05-.05.05c-1.72,1.33-3.89,1.38-4.28,1.38h-.1c-1.13-.25-2.07-3.2-2.07-3.2,0,0,0-.05-.05-.05.1-.2.2-.44.2-.74,0-.54.3-2.02.34-2.07.2-.34.93-1.57,1.18-2.07,0-.2.74-.44,1.03-.44.25,0,1.03.15,1.62.15.25,0,.49,0,.74-.1.34-.2,1.28-.98,1.87-1.43.05.34.2.84.2.98.15.64.98,1.48,1.33,1.87.1,0,.49,1.43.44,1.67v.1l-1.08,1.72h-.05c-.98-.05-1.97-.64-1.97-.64-.15-.1-.39-.05-.49.15,0,.1.05.34.25.44M167.35,38.73c.05.39-.79.34-1.97,1.08-.34.25-.74.3-1.08.3-.39,0-.69-.1-.98-.2-.25-.1-.39-.2-.39-.2h0s-2.17-2.07-2.21-2.17c-.15-.2-.34-.3-.54-.3-.25,0-.44.1-.59.3-.05.05-.1.1-.1.1v-.05s-.25.05-.54.05h-.05c-.49,0-.74-.2-.89-.39.25-.15.79-.39.79-.39.05-.05,1.33-.79,2.56-.84.2,0,.39-.05.59-.05.34-.05.59-.05.89-.05.44,0,.79.1,1.33.39l1.23.74.05.05.39.69c.1.2.3.25.49.15.15-.15.25-.34.1-.49,0,0-.3-.49-.54-.89-.15-.25-.3-.44-.3-.44-.05-.1-.05-.15-.05-.15q0-.1.1-.2h.2s.1.05.1.05c.05,0,.34.39.84.79.49.44.15-.3.59,1.43.05.25.05.39.05.54v.15h-.05ZM169.91,37.5c-.15.2-.34.34-.49.44-.3.15-.89.3-1.33.39,0-.15-.05-.3-.1-.49-.3-1.48-.44-1.57-.84-1.82-.44-.3-.69-.64-.79-.79-.15-.1-.34-.2-.74-.2-.2,0-.44.05-.59.34-.15.2-.2.39-.2.59v.05l-.39-.25c-.59-.39-1.18-.49-1.72-.49-.2,0-.34,0-.54.05.05-.59.2-1.92.44-2.07.39-.34,1.18-.93,1.87-1.03.1,0,.2-.05.3-.05.15,0,.3.05.44.05,1.03.44,3.99,1.82,4.63,3.35.2.49.3.84.3,1.18-.05.3-.15.54-.25.74M172.22,45.96s1.03-1.57,1.03-4.33c0-1.23-.2-2.66-.79-4.33v-.05l-1.03-4.08c-.05-.2-.2-.3-.44-.25-.2.05-.3.25-.25.44l.74,2.85c-.3.05-.49.2-.74.34,0-.39-.1-.79-.34-1.28-.89-1.97-3.94-3.3-4.97-3.74-.25-.1-.44-.15-.69-.15h-.05s0-.05-.05-.1h0s-.3-.54-.3-1.33c0-.69.2-1.53.98-2.41,1.82-2.17,2.31-2.36,2.95-2.41.79-.1,2.12-.3,2.12-.3.15-.05,1.33-.89,2.76-.84.54,0,1.03.1,1.62.39-.2.25-.39.49-.49.64-.44.79-.98,2.41-1.08,2.85-.05.34-.89,2.51-.93,3.4h0c0,.89.49,4.28.69,4.87.15.49.79,1.92.74,2.07v.05c-.05.2-.2,1.18-.2,1.18-.05.15.05.3.15.34.1.1.25.1.39.05,0,0,.15-.1.39-.25l.3-.15c.1-.05.1,0,.1,0h.1c.2-.05.84.05,1.08-.64.05-.34.2-1.13.2-1.82,0-.2,0-.44-.05-.64-.1-.59-.2-.98-.2-1.23,0-.1,0-.15.05-.25,0-.05.05-.1.1-.15.3.89,1.08,2.76,2.56,3.2h.15c.39,0,2.36-.05,4.18-1.18l-.25,2.61-.74,2.56.05.3s.54,1.13,1.13,1.43h.15s.1,0,.2-.05c.44-.25.34-.59.54-.98.1-.3.15-.59.2-.69l.3-.2h0v.25c0,1.18.44,3.54,3.54,5.9-1.57.84-2.56,2.12-2.61,2.17-.05.05-.05.15-.05.25-.3.05-.59.05-.69.1-.44.1-1.67.59-1.92.59h-.05c-.69.1-1.38.79-2.31,1.03-1.33.59-.74,1.72-1.72,1.82-.54.15-.93.49-1.18.89-.39.79-.54,1.62-.64,1.62-.25.1-.39.39-.39.59l-4.03-1.92c0-.1-.05-.25-.05-.34,0,0,0-.15.05-.2.05-.2.1-.34.1-.44,0-.44-.2-.79-.34-1.03.1-.1.1-.15.1-.3v-.05c-.1-.59-.59-.89-.89-1.08v-.15c0-.2-.05-.39-.1-.64-.15-.25-.34-1.23-.34-1.23,0-.05-.05-.2-.05-.39,0-.34,1.23-3.1,1.23-3.2M164.89,43.55s1.18.2,1.43.69c.15.15,1.13.69,1.08.89.44.89,1.18.59,1.13,1.18v.15l.2.34s.49.39.49.64l.25.3s.49.15.69.89c0,.1.2.84.2.84,0,.1.2,1.03.44,1.48,0,.05.05.15.05.25v.3c0,.1,0,.3.25.39,0,0,.2.15.39.34.1.05.15.15.2.2-.1,0-.1.05-.1.05-.15.15-.15.34,0,.54,0,0,.39.44.39.84,0,.1,0,.15-.05.2-.05.15-.1.3-.1.44,0,.44.1.74.1.98,0,.2-.05.34-.34.59-.05.05-.64.64-1.13.84-.3.1-.59.15-.79.15-.05,0-.05-.05-.05-.05-.05-.1-.15-.3-.25-.44-.3-.49-.89-.54-.93-2.12v-.15c.49-.25,1.03-.49,1.43-.84.25-.25.25-.49.25-.74,0-.59-.3-1.43-.34-1.62v-.1c-.05-.44-.3-2.31-.3-2.51,0-.05-.05-.05-.05-.1l.1-.2-.1-.39s-.44-.3-1.03-.69c0-.05.05-.1.05-.1-.05-.3-.2-.84-.74-1.28-.49-.44-1.13-.84-1.28-.93-.1-.1-.93-.79-.93-.79-.59-.2-1.03-.3-1.43-.3.3-.05.69-.15.84-.15M167.3,69.92s1.53.93,1.62,1.43c.1.25.15.59.15.93,0,.59-.15.98-.79,1.23.05,0-.34.05-.79.1-.25.05-.54.05-.74.05-.05-.25-.25-.54-.64-.69-.15-.05-.34-.1-.54-.1-.25,0-.59.1-.89.3-.3.2-1.67,1.03-1.92,1.13-.34.15-.98.05-1.33.64-.05.1-.2.49-1.53,1.23l-4.67,1.03c-.93-1.57-3.4-5.12-3.64-5.41v-.05c-.1-.15-.25-.3-.44-.39v-.05s-.15-.64-.15-1.33c0-.59.15-1.03.34-1.08.1-.05.15-.1.25-.2.15-.15.49-.44.69-.69.3-.34,1.08-1.18,1.23-1.08.64-.1,1.08-.54,1.43-.93.3-.34,1.08-1.28,2.07-1.28.1,0,.2,0,.3.05,1.43.2,4.77.44,4.87.59.54.34,2.21,1.62,2.85,1.77.15,0,.39,0,.69.05.49.1,1.03.3,1.23.93.15.15.39.39.39.74,0,.15-.05.34-.25.64-.05.1-.05.2-.05.3.15.05.2.15.25.15M163.42,79.17c-.1.15-.25.34-.3.34-.1,0-.25.05-.3.1-.05-.05-.1-.1-.15-.15l-.49-.39c-.15-.15-.39-.1-.49.05s-.1.39.05.49l.44.34s-.05.05-.1.05c-.59.2-.59.54-.98.59-.2.05-.34.05-.59.05-.98,0-2.36-.64-2.66-1.03-.49-.59-.98-1.57-.98-1.57-.05-.2-.3-.25-.44-.15-.15.05-.25.3-.15.44,0,0,.1.15.15.3-.05,0-.1,0-.15.05l-.39.3c-.1-.39-.15-.79-.3-1.18l4.58-1.03c1.43-.74,1.82-1.28,1.92-1.57h0c.15-.1.59-.2.89-.3.49-.2,1.67-.93,2.12-1.23.2-.1.3-.2.44-.2.1,0,.2,0,.34.05.05,0,.15.34.2.44-.25,1.13-1.03,1.57-1.03,1.57l-.2.34s-.05,1.82-.1,2.51c0,.1-.05.15-.39.15-.2,0-.39-.05-.44-.05-.05-.05-.25-.1-.39-.15-.1-.05-.2-.1-.25-.15h0c-.05-.15-.15-.3-.34-.3,0,0-.34.1-.34.34h0c.25.64.59.84.84.93M162.78,54.87c-.05-.34-.2-.64-.3-.93.84.25,2.61.59,5.12.64,0,1.67,1.03,2.31,1.03,2.41h0c-.74,2.17-2.95,2.66-4.67,2.66-.79,0-1.43-.1-1.72-.15.49-1.03.64-2.26.64-2.31.05-.3.05-.59.05-.84.05-.49-.05-.93-.15-1.48M167.35,46.65c-.2-.1-.44-.25-.59-.3-.2-.1-.2-.15-.2-.15,0-.05.05-.1.1-.2.15.1.3.2.39.3.15.1.2.25.3.34M163.66,44.48c.39,0,.79.05,1.33.2-.05.05.69.64.84.79.05.05.15.1.25.15-.1.15-.25.34-.25.64,0,.34.25.64.64.79.59.25,1.67.98,2.12,1.28-.1.2-.34.49-.93.79-.15.1-.25.3-.1.49.05.1.15.2.3.2.05,0,.1,0,.15-.05.3-.15.54-.34.74-.49.05.25.05.49.1.74-.05,0-.1,0-.15.05-.54.34-1.62.64-1.62.64-.2.05-.3.25-.3.44.05.2.25.3.44.25h-.05s1.03-.2,1.77-.64c.05.25.05.39.05.39v.1c.05.34.34,1.08.34,1.62,0,.2-.05.2-.05.2-.39.3-1.03.64-1.57.89-3.4,0-5.31-.69-5.61-.79-.25-.69-.34-1.33-.34-1.72v-.2c0-.74-.39-1.57-.74-2.07-.39-.49-.74-.89-.74-1.53v-.25c.05-.89,1.03-2.36,1.18-2.36.49-.2,1.08-.54,2.21-.54M155.99,53.68c.15-.39.05-.2.25-1.57.15-1.28,1.48-5.22,1.48-5.22.3-.59,1.18-1.23,1.18-1.23.69-1.23,1.48-1.38,1.97-1.38.2,0,.34.05.34.05h.2c.1-.05.15-.05.25-.1l-.39.2c-.74.34-1.43,1.72-1.62,2.85v.34c0,.93.59,1.53.89,1.92.3.39.64,1.18.59,1.67v.1s0,.1,0,.1c0,.74.2,1.77.64,2.76.1.25.2.59.3.93.15.49.15.89.15,1.23,0,.25,0,.49-.05.74.05,0-.64,2.85-1.13,2.95-.1.05-.49.1-.93.1-.74,0-1.67-.1-2.46-.25-.39-.05-.74-.2-.98-.3-.2-.1-.25-.15-.3-.15-.3-.79-.84-.98-2.21-1.97-.2-.15-.2-.25-.25-.44.05-.98,1.77-2.66,2.12-3.35M154.02,58.11c1.28.89,1.57,1.03,1.72,1.53.54.93,2.76,1.08,4.38,1.13.54,0,.93-.05,1.23-.15.2-.1.39-.3.54-.54h0s.93.2,2.12.2h.05c.44,0,.89-.05,1.33-.1l.1,6.2h-.34s-2.12-1.28-2.46-1.62c-.74-.44-3.74-.49-5.17-.74-.15-.05-.3-.05-.39-.05-1.48,0-2.31,1.18-2.61,1.53-.3.3-.74.64-.98.69-.74.1-1.33,1.03-1.67,1.33l-.69.69c-.1.1-.15.1-.15.1-.64.3-.69,1.08-.69,1.72,0,.3.05.59.05.84-.25-.15-.49-.25-.74-.39-.1-.84-.15-1.62-.15-2.36,0-6.59,3.64-9.4,4.53-9.99M145.46,69.78c.93.3,3.84,1.13,5.17,2.02l.05.05c.2.15.34.25.44.39h0c.39.49,3.54,5.07,3.79,5.76-2.12-2.17-5.86-3.59-5.9-3.64-.2-.05-.39.05-.44.2-.1.2,0,.39.2.44h0s5.76,2.36,6.59,4.92c.1.44.2.74.2.74,0,.05.34,1.28.34,1.38-.1,1.33-.79,5.31-3.64,6.05.44-.93.79-2.02.79-3.25,0-1.72-.69-3.64-2.46-5.9-.1-.15-.34-.2-.49-.05-.15.1-.2.34-.05.49,1.72,2.17,2.26,3.94,2.26,5.46,0,1.33-.44,2.46-.98,3.44-.74,1.18-2.71,2.76-5.41,3.15h-.2c-.98,0-1.67-.3-2.12-.59s-.69-.54-.69-.54c-.05-.05-.1-.1-.15-.1.44-.93.93-2.07,1.08-2.8.69-.1,2.46-.44,2.66-1.82.05-.25.05-.54.05-.93,0-1.33-.89-2.95-6.15-4.97.59-.49,1.92-1.33,4.18-1.33,0,0,1.48-.05,2.61-.05.2,0,.34-.15.34-.34s-.15-.34-.34-.34c-1.18,0-2.61.05-2.61.05-3.4,0-4.97,1.72-5.07,1.92-.3.2-2.26,1.57-3.3,3.79-.49,1.08-1.03,2.31-1.43,3.69-1.62-1.03-5.02-4.53-6.54-6.15-.49-.54-.79-.84-.79-.84-.15-.15-.34-.15-.49-.05-.15.15-.15.34-.05.49,0,0,.2.2.49.54-.44.2-1.23.64-2.02,1.13-.2-.1-.64-.39-1.18-.79-.3-.25-.34-.39-.34-.98,0-.3.05-.64.05-1.08,0-.25,0-.54-.05-.84v-.1c-.15-1.43,3-2.26,3.84-2.36.93-.1,4.43-.98,4.43-.98l1.57-.69s0,.05.05.05h.1c.1-.05.15-.1.2-.15l1.38-.59s.1.05.1.1c.3.3.69.79,1.08,1.08.34.3.74.3,1.08.3.2,0,.39-.05.54-.05.59-.1,1.23-.59,1.28-.59.54-.34.34-.98.44-1.28,0-.3.2-1.28.25-1.48s.3-.84.34-1.03c.15-.15.64-.34.93-.44.2-.15.44-.3.44-.3h.05s.2.1.3.1c.15.05.3.15.3.15.1.05.44.15,1.03.15.34,0,.84-.05,1.33-.2.2-.15.44-.25.54-.39M140.68,98.86c.3.05,1.72.93,1.77,1.03.15.1.98.98.98.98.2.39.49.59.54.64.34.15.98.64,1.03.64,0,.05,1.48,1.82,1.62,2.02.05.05.1.1.1.2h-.05l-1.97-1.23-1.57-.59c-.15-.05-.34,0-.44.15-.1.15-.05.34.1.44.54.44,1.28,1.82,1.28,1.82,0,0,.49,1.13.74,1.72.05.1.05.2.05.2q0,.1-.2.2c-.1,0-.34-.25-.34-.25l-.79-1.38-1.67-2.21-.05-.05c-.15-.1-.34-.1-.54.05-.1.1-.1.25-.05.34l.3.98.39.93.39,1.43s.3,1.03.39,1.28h0s-.05,0-.05.05c-.15-.05-.34-.1-.34-.1l-1.48-3.3h0v-.05h0v-.05h-.05s-.15-.05-.2-.05c-.2,0-.34.1-.34.3h0s-.05.34-.05.79c0,0-.1.2-.34.3-.25.2-.54.3-.59.3-.2.05-.59.1-.89.49v-.05c0-.15.05-.3.05-.3l.05-.05c.2-.1.54-.3.74-.49.1-.15.1-.3.1-.39,0-.39-.2-.89-.3-1.08-.25-.49-1.23-.98-1.28-1.08-.15-.15-1.28-1.08-1.28-1.08-.74-.54-1.18-2.51-1.38-4.82v-.2c-.15-1.48-.15-3.05-.2-4.53v-.59c0-1.67.25-3.2.59-4.53.39-1.53.93-2.8,1.48-3.99.84-1.77,2.51-3.1,3-3.44,5.56,2.07,6.05,3.49,6.05,4.43,0,.3-.05.59-.05.89.1.74-2.31,1.23-2.31,1.23-.2.05-.3.2-.34.34,0,.54-.79,2.21-1.28,3.2-.25.49-.39.84-.39.84l-1.03,2.17s-1.48,3.4-1.57,4.23c-.05.05,0,.1,0,.1-.05,1.08,1.33.98,1.67,1.18M117.9,73.81h.3c0-1.38-.98-6.69-.98-10.24,0-3.35,1.92-5.46,2.12-5.66.84.05,1.72.05,2.56.05,3.89,0,7.18-.44,8.07-.54.34,1.28.79,2.21,1.18,2.9l-.05.05h0s-.05.54-.05,1.48c0,1.13.1,2.9.54,5.02.64,3.1,1.48,5.9,1.72,6.84l-1.38.59s-3.49.84-4.33.93c-.89.15-4.33.69-4.43,3.05v2.02c0,.59.1,1.18.59,1.57.39.3.74.54.98.69-.44.3-.84.64-1.13.98-.79.93-1.48,1.92-1.77,2.9-.59-.39-2.12-1.43-2.66-1.53-.15,0-.79-.1-1.48-.2v-.1c-.49-1.18-.59-2.26-.59-3.3,0-1.28.25-2.31.39-3,.39-1.87.69-3.74.74-4.53h-.34ZM134.97,73.02l-1.03.44c-.3-1.03-1.08-3.74-1.72-6.69-.44-2.07-.54-3.79-.54-4.92v-.54c.15.2.3.39.3.49.39.74,2.36,3.4,2.41,3.44,0,0,1.28,3.44,1.23,3.49.05,0-.69,1.13-.93,2.36-.05.2-.05.34-.05.54.05.54.15,1.03.34,1.38M149.79,48.86c.05.15.2.34.25.49-.2.1-.74.3-.98.25h-.1l-.39-.2c-.15-.1-.39,0-.49.2-.05.15,0,.39.15.44l.39.2c.15.05.3.05.44.05.59,0,1.18-.3,1.48-.44.15-.15.25-.3.25-.44,0-.2-.1-.39-.2-.54l.2-.05s1.62.25,1.92.3c.1,0,.79.1,1.28.2h-.05c-.15.1-.34.15-.34.15l-1.62.25c-.1.05-.2.05-.25.2-.05.1-.05.2,0,.34l.54.84c.05.1.05.2.05.25.05.34-.59.79-.59.79l-.15.34c.05.2.05.39.05.54,0,.98-.59,1.18-.59,1.18-.49.34-.93.44-1.38.44-.89,0-1.82-.49-2.56-.93-.3-.15-.54-.3-.79-.44-.59-.25-.64-.59-.64-1.18v-.93h0v-.2c0-.93.39-1.77.64-2.07.1-.15,1.08-.59,1.43-.74l1.03.3,1.03.44ZM148.26,47.73l-.54-.15h-.15s-1.38.44-1.82,1.03c-.34.44-.79,1.33-.79,2.51v.1s0,.05,0,.05v.98c-.05.54.1,1.18.64,1.62-.89-.05-1.92-.1-2.07-.1-3.1-.2-4.13-3.1-4.13-3.1-.1-.2-.15-.49-.15-.79,0-.44.1-.93.15-1.03l1.82-.93s3.2-1.08,4.97-1.87l.05-.05s.05.1.1.15c.05-.1,1.33.93,1.92,1.57M146.83,42.86c-.15.2-.34.39-.59.49l-1.82,1.23c-.15.15-.2.3-.1.49.1.15.34.2.49.1l1.82-1.18c.1-.05.15-.1.25-.2,0,.39-.05.84-.1,1.08-.15.1-.49.3-.93.49-1.72.79-4.97,1.92-4.97,1.92l-2.21,1.08-2.41,1.18c1.33-1.43,1.87-3.89,2.26-4.97.34-.98.89-1.08,1.77-1.53.54-.3,1.18-.93,1.87-1.82.1.1.2.1.3.1h0l5.07-1.33v.34c.1.59-.05,1.72-.69,2.51M157.12,34.49c-.2.54-1.23,3-1.53,4.23l-.1.34-.2-.1s-.15-.1-.15-.1c-.1-.1-.3-.15-.39-.05h0s-.05.05-.1.05h0s-.39.39-.49.49c0,.05-.34.05-.54.05l-.59-.64c-.1-.15-.34-.15-.49,0-.2.1-.2.34-.05.49l.49.54s-.1.1-.15.15v.05c-.39.15-.69.39-.79.89-.05.25.1.15-.2.25h0c-.34,0-1.62-.64-1.62-.64l-2.07-1.08-.3-.15-.25-.05-4.92,1.28c.34-.59.64-1.28.89-1.97.2-.59.3-1.28.3-1.92,0-.39-.05-.74-.1-1.08.1.15.2.25.2.3.15.44.54.44.79.44.39,0,.79-.1,1.13-.05.2,0,.3,0,.34.05.3.15.54.15.89.15.89,0,2.07-.3,2.07-.3,1.23-.05,2.07-.93,2.41-1.13.39-.3,1.13-.89,1.28-.93h.25c.34,0,.69-.15,1.08-.54.34-.34.44-.84.49-1.23l.93.69c.98.64,1.33.64,1.77.84-.1.3-.2.49-.3.69M141.13,29.57s.1-.05.25-.05c.15-.05.3-.05.3-.05.2-.05.3-.2.3-.39v-.2c0-.2.69-.69,1.53-.93s1.72-.39,1.72-.39c.2,0,.3-.15.3-.34,0-.84,1.33-1.23,2.8-1.18,1.23,0,2.36.2,2.36.2.34-.05.59-.05.84-.05,1.08,0,2.12.39,2.95.79.79.39,1.33.79,1.33.79l.3.05c.15,0,.25-.05.34-.05,1.48-.05,2.36,1.92,2.36,1.92l.25.2c.79.25,1.03.93,1.03,1.72,0,.69-.2,1.33-.25,1.53-.1.25.15.34-.79.59h-.15c-.2,0-.49-.1-.79-.2-.93-.39-.93-.2-2.07-.93l-1.43-1.08c-.1-.1-.3-.1-.39-.05-.1.1-.2.2-.2.34v.25c.05.34-.05.93-.3,1.13-.39.34-.44.34-.59.34h-.15c-.69.05-1.28.79-1.67.98-.54.34-1.13.98-2.12,1.03-.05,0-1.18.25-1.97.25-.3,0-.54-.05-.59-.05-.25-.15-.44-.15-.69-.15-.39,0-.84.1-1.13.1h-.2c-.15-.39-.54-.93-1.18-1.33-.05-.1-.1-.25-.15-.34-.39-.84-1.03-1.62-1.92-2.31-.3-.25-.64-.44-.98-.64v-.05h0c-.05-.1-.05-.2-.05-.2-.05-.54.54-1.13.79-1.23M136.4,30.75s.1-.05.15-.05c.69.05,1.97.2,3.25.84.39.2.74.39,1.13.69.79.59,1.33,1.33,1.67,2.07.39.79.54,1.57.54,2.41,0,.54-.05,1.13-.25,1.67-.25.84-.69,1.62-1.08,2.26-.64.93-1.43,1.67-1.77,1.82-.69.34-1.67.59-2.12,1.92-.39,1.18-1.03,3.84-2.17,4.82.05-.1-.25.15-.2.54,0,.1,0,.25.05.44.05.15.1.39.2.64.49,1.13,1.97,4.08,1.97,6.2.05,0,0,.05.05.15-.05-.05-.05.05-.05.05,0,2.31.44,4.43.93,6.2.69,1.82,1.38,3.89,2.36,4.18.34,0,1.18.3,1.33.54.44.44,1.57.89,1.92,1.08.1,0,.34.15.44.25-.05.05-.1.05-.2.1-.39.15-.79.2-1.08.2-.49,0-.79-.1-.79-.1.05.05-.39-.3-.89-.3h-.15c-.34.1-.54.34-.64.39-.05.05-.69.2-1.08.59-.05.05-.05.1-.1.1h0v.1s-.05.1-.05.1c-.1.34-.25.79-.34.98-.1.3-.25,1.18-.25,1.62,0,.39-.1.74-.1.74-.05.05-.79.49-.93.49h-.49c-.3,0-.54-.05-.64-.15-.3-.25-.69-.79-1.08-1.08-.05-.05-.1-.15-.2-.2-.2-.3-.44-.74-.44-1.33,0-.15,0-.3.05-.39.2-1.13.84-1.87.93-2.46v-.05c-.05-.54-1.33-3.79-1.33-3.84-.05-.1-2.07-2.85-2.36-3.4-.3-.59-1.38-1.72-2.12-4.63-.25-.98-.44-2.12-.59-3.54,0-.1-.2-.64-.2-1.82v-.44c0-.34.05-.69.1-1.08.3-2.21.2-5.17.25-5.66,0-.1.05-.34.05-.69.15-1.03.44-2.9.93-4.18.59-1.62,3.1-5.76,3.1-5.76.1-.2.05-.39-.1-.49-.05-.05-.1-.05-.15-.05-.15,0-.25.05-.3.2,0,0-2.46,4.08-3.15,5.9-.49,1.23-.74,2.9-.89,3.99h-.05c-.2.05-.39.1-.64.1-1.28,0-2.85-1.53-4.28-3.35-.49-.69-.69-1.23-.69-1.77,0-1.28,1.03-2.71,2.71-4.48,1.77-2.26,8.37-3.05,9.79-3.1M116.37,44.34c0-.44.25-2.9.54-4.67.05-.44.15-.79.2-1.08.39-1.53,1.67-2.07,2.76-2.66,1.13-.69,2.26-2.9,3.25-3.49.98-.64,3.99-1.23,6.3-1.72.74-.15,1.77-.25,2.8-.25h.69c-2.46.44-5.51,1.28-6.94,2.85-1.67,1.82-2.9,3.3-2.9,4.97,0,.74.3,1.48.84,2.21,1.48,1.82,3.05,3.59,4.82,3.59.2,0,.39,0,.59-.05,0,.15,0,.25-.05.34-.05.59.05,3.4-.25,5.61,0,.25-.05.54-.05.79h-.05s-.1.05-.2.15h0l-3.2-1.08c-.54-.15-3.54-1.38-4.38-1.48-.49,0-2.17-.64-2.76-1.08-.59-.3-1.97-2.46-2.02-2.95,0,.05,0,0,0,0M109.58,50.04c-.2-.1-.54-1.13-.49-1.82,0-.39.1-.64.15-.69.64-.59,2.26-2.51,2.26-2.51,1.97-3.54,3.89-4.63,4.63-4.97-.25,1.67-.44,3.64-.49,4.18v.15c.1.89,1.48,2.9,2.36,3.54.79.49,2.36,1.13,3.15,1.18.49,0,3.59,1.28,4.18,1.43l2.71.89c-.79.59-2.07,1.48-3.4,2.36-.54.34-1.03.49-1.43.49-1.38.05-2.61-1.23-3.49-1.87-.44-.3-1.03-.44-1.62-.44-1.33,0-2.95.44-4.38.69h-.34c-.93,0-1.82-.59-2.46-1.23l-.05-.05-.1-.1c-.59-.49-.93-.98-1.18-1.23M110.32,53.09c0-.44.1-.79.25-.98.69.64,1.67,1.23,2.8,1.23.15,0,.3,0,.44-.05,1.53-.25,3.15-.64,4.28-.64.54,0,.93.1,1.18.3.84.59,2.17,1.97,3.94,2.02.54,0,1.18-.2,1.82-.59,1.62-1.08,3.15-2.17,3.89-2.66l.05-.05c0,1.18.2,1.87.25,1.87.1,1.18.3,2.26.49,3.2-.98.15-4.18.54-7.92.54-.89,0-1.82,0-2.8-.05-1.43-.1-2.95-.25-4.33-.54-.79-.15-1.53-.34-2.26-.59,0,0-.05,0-.05-.05-.34-.1-.69-.2-1.03-.34-.79-1.18-.98-2.02-.98-2.61M104.91,81.19l-.05-.05-2.31-1.62c-.3-.3-.39-.54-.39-.74,0-.34.25-.64.25-.69,0,0,3.25-3.3,4.77-6.54.84-2.56,1.08-8.56,1.13-8.56.34-2.95,1.13-4.67,1.82-5.61.44-.69.84-.93,1.03-1.03.2.05.39.15.54.2-.74.84-2.56,3.3-2.66,7.18l-.84,10.28v.1c0,.1-.05.59-.59,2.02,0,0-.84,1.87-1.33,2.9-.34.79-.39.84-.44.93-.2.44-.79,1.08-.93,1.23M108.4,82.72c-.39-.05-.93-.2-1.48-.34-.44-.1-.84-.25-1.18-.39-.15-.05-.3-.15-.34-.15h-.05s-.05-.1-.05-.1c.25-.25.79-.84,1.03-1.28.1-.15.15-.25.49-1.03.54-1.08,1.33-2.95,1.33-2.95.54-1.43.64-2.02.64-2.31v-.1l.79-10.24c.1-4.23,2.41-6.69,2.71-7.04.49.15.98.25,1.48.34-.93.84-2.9,3.2-2.9,7.43v.15c0,2.17.2,4.67.2,7.09,0,3.3-.3,6.45-1.43,8.51-.2.3-.34.49-.49.79.15.1-.59.84-.74,1.62M113.08,84.49c-.15-.1-.44-.34-.69-.64-.84-.89-1.77-.79-3.05-.84-.2-.05-.15,0-.2-.1-.05-.3.69-1.28.69-1.28.25-.3.39-.59.54-.89,1.28-2.26,1.53-5.51,1.53-8.81,0-2.46-.15-4.97-.2-7.09v-.15c0-5.22,3.1-7.23,3.05-7.23h.05c1.18.2,2.36.34,3.59.44-.64.89-1.92,2.9-1.97,5.71,0,3.64,1.03,8.96,1.03,10.24,0,0,0,.1.05.2-.05.54-.34,2.46-.74,4.28-.15.64-.39,1.72-.39,3.1,0,.98.15,2.12.59,3.3-.34-.05-.69-.1-.98-.1h-.1c-.1,0-.15,0-.25.05h0c-.3.05-.54.05-.84.05-.98-.05-1.72-.25-1.72-.25M116.62,91.67s-.1.1-.2.2c-.54.44-1.62,1.13-1.97,1.28h0c-1.92-.05-2.21-1.03-2.26-2.46,0-.93.25-1.92.3-2.61.05-1.08,2.31-2.51,3.1-2.71.1-.05.2-.05.3-.05h.05c.44,0,1.03.1,1.62.15.69.1,1.33.2,1.53.2,0-.05.69.34,1.33.79.54.34,1.08.69,1.18.79v.25c0,.79.39,1.43.79,1.92-.74-.05-1.43-.05-1.67-.05h-.05c-.89.05-3.35,1.53-4.03,2.31M117.46,92.12c0-.1-.05-.15-.1-.2.64-.59,2.9-1.87,3.25-1.87h0c.54.05,1.62,0,2.61.1.69.05,1.33.25,1.33.3.44.49.64,2.41,1.13,2.95.3.25,2.46,2.02,2.46,2.02.15.1.39.1.49-.05.15-.15.1-.39-.05-.49,0,0-2.21-1.82-2.46-2.02-.1.05-.49-2.12-1.03-2.85-.34-.39-.93-.49-1.57-.59h0c-.39-.3-1.23-1.13-1.23-1.97v-.05c0-.1.05-.25.05-.39.2-.89.89-2.02,1.72-3,.3-.34.84-.79,1.43-1.18.93-.59,1.97-1.13,2.36-1.33,1.67,1.77,5.02,5.17,6.69,6.2h0c-.3,1.33-.54,2.76-.54,4.38v.59c.05,1.43.1,3,.2,4.48-1.13.98-2.8,1.23-4.72,1.23-1.33,0-2.8-.15-4.23-.2-3.1-.2-5.71-1.87-6.69-2.85-.1-.1-.2-.2-.25-.25-.59-.79-.84-2.95-.84-2.95M151.06,108.75c.25.34.74.98,1.23,1.87.25.44.39,1.23.39,2.02,0,1.03-.15,2.07-.25,2.61,0,.69-.49.74-1.82,2.26-.54.59-1.48.84-2.46.84-1.03,0-2.07-.25-2.71-.44-1.43-.39-4.58-1.03-6.45-1.28-1.67-.15-5.31-2.31-6.2-2.76-.79-.34-5.07-3.89-5.51-4.33-.64-.54-1.82-.79-2.31-.89h-.1c-.93.05-3.64,2.12-3.99,2.31-.3.15-.74.49-.93.98-.05.1-.1.3-.1.34,0,.34.15.54.25.79.25.54.84.54.93.64.2.1.54.15.84.25-.05.1-.1.15-.2.25s-.15.2-.25.25c-.05.1-.05.05-.05.05-.44.34-.34.69-.34.84-.05.05-.3.1-.34.1.05,0,0,0-.05,0-.15,0-.39-.05-.59-.05h-.15c-.15,0-.69-.05-.74-.05h0s-.15-.15-.25-.25c-.05-.05-.05-.1-.05-.1-.2-.49-1.62-2.95-1.67-3.44l-.1-.05h.1c0-.59,1.08-3.4,1.62-4.58.64-1.38.64-2.8.69-3.49,0-.39.3-.74.44-.93,2.76,2.36,5.22,5.12,8.56,6.69,3.35,1.57,10.58,4.48,11.42,4.72.15.1.44.2.84.34,1.43.59,4.08,1.77,4.38,2.07.15.15.34.15.49,0s.15-.34,0-.49c-.34-.34-1.57-.93-2.76-1.43h.3c5.86.05,6.5-2.95,7.58-5.31.15-.05.25-.25.3-.34M149,101.86c.44,1.38.84,2.56.89,2.76.2.49.79,1.18.79,2.41,0,.2-.05.44-.05.69-.05.1-.05.2-.1.3-.1.3-.2.54-.34.89-1.28,2.51-1.33,4.82-6.94,4.92h-.74l-1.53-.15h-.05c-.3-.1-.59-.25-.74-.3-.74-.25-8.02-3.15-11.32-4.72-3.2-1.53-5.66-4.23-8.46-6.69-.1-.05-.1-.1-.15-.15-1.43-1.33-1.72-3.2-1.72-4.48,0-.44.05-.79.1-1.08,1.28,1.08,3.74,2.46,6.69,2.66,1.43.1,2.9.25,4.28.25,1.77,0,3.49-.25,4.77-1.13.2,2.07.54,3.89,1.57,4.72,0,0,1.13.93,1.23,1.03s.39.3.64.49c.15.1.3.2.34.3l.1.1c.05.15.25.64.25.84-.1.05-.59.3-.79.59-.05.1-.15.34-.15.59-.05.25.05.59.39.79,0,0,.1.05.3.1.2,0,.39-.1.54-.3.1-.2.34-.25.49-.3.25-.1,1.03-.3,1.38-.89l1.18,2.46c.2.15.49.34.84.34.15,0,.25-.05.34-.05.15-.15.44-.34.44-.69,0-.1,0-.2-.05-.25-.05-.2-.34-1.23-.34-1.23l-.34-1.23.25.34.84,1.43c.1.05.34.54.89.59.1,0,.15,0,.2-.05.2-.1.69-.3.69-.84,0-.15-.05-.3-.1-.44-.25-.59-.74-1.77-.74-1.77,0,0-.25-.49-.59-.98l.25.1,2.02,1.28.2.05s.39,0,.69-.34c.1-.15.15-.3.15-.39,0-.3-.2-.54-.3-.69-.15-.15-1.67-2.07-1.67-2.07-.05-.05-.69-.54-1.13-.74,0,0-.25-.25-.2-.3-.2-.44-.98-1.03-1.18-1.28-.3-.2-1.48-.98-2.12-1.13-.49-.1-1.28-.34-1.28-.54v-.05h0c.2-.84,1.53-4.08,1.53-4.08l1.03-2.12s.1-.25.3-.59c.3.3,1.33,1.28,3.3,1.28.15.3,1.53,3.2,1.62,4.08.05.74.93,3.44,1.62,5.66M148.65,98.41c-.3-1.08-.59-1.97-.64-2.31-.15-1.03-1.23-3.3-1.57-4.03,2.51-.49,4.43-1.92,5.31-3.2h0c1.28-.2,2.21-.84,2.9-1.67-.15,1.03-.39,2.26-1.08,4.03,0,0-.54,1.48-1.18,2.76-.25,1.18-2.85,3.64-3.74,4.43M151.26,96.89c.84-.89,1.62-1.92,1.82-2.66.25-.44.39-.84.59-1.28.05,2.12.25,5.27.34,6.69-1.48-1.43-2.71-2.71-2.76-2.76M168.63,99c-.05.34-.05.79-.05,1.23,0,.25,0,.49.05.74-.3-.1-.59-.15-.89-.15-1.57.05-2.8,1.18-4.38,1.72-1.53.49-3.15.69-3.94.74.59-1.53,2.17-6,2.61-9.69,0,0,.25-2.26.44-5.41,0-.15-.15-.34-.3-.34-.2,0-.39.15-.39.34h0c-.25,3.1-.44,5.36-.44,5.36-.39,3.79-2.17,8.56-2.66,9.79-.84-.25-2.36-1.57-3.84-2.9v-.05h0s-.39-5.61-.39-8.17c0-.49.05-.89.05-1.03v-.05c.89-2.56.98-4.08,1.33-5.36v-.1c.64-1.38.84-2.9.84-3.59h0c0-.39-.34-1.53-.34-1.53,0,0-.1-.3-.15-.69l.59-.54h.05c.2.3.34.59.59.84.59.64,1.92,1.28,3.2,1.28.25,0,.54-.05.74-.1.69-.2.89-.64.93-.59.49-.15.84-.54,1.03-.49.49-.15.79-.59.93-.89.1,0,.2.05.3.05.34,0,1.03-.1,1.08-.84.05-.59.05-1.87.1-2.36.3-.2.89-.79,1.13-1.77.59-.05,1.62-.15,1.62-.15,1.08-.3,1.38-1.18,1.38-1.92,0-.44-.1-.84-.2-1.13-.25-.74-1.18-1.33-1.67-1.62.1-.25.2-.49.2-.69-.05-.74-.54-1.08-.54-1.13-.2-.69-.84-1.03-1.38-1.18l-.15-6.5c1.18-.3,2.36-1.03,3.05-2.41l.15.1h.3c.25,0,.64-.05,1.08-.2.74-.3,1.33-.93,1.33-.93.34-.25.54-.59.59-.93l4.03,1.92c.05.25.1.44.1.64v.15c-.05.1-.05.25-.05.25.05.79.59,1.13.59,1.13.05.05.1.1.15.1v.2c0,.59.05,1.18.15,1.92,0,0,.15,1.23.93,2.31t-.05.05s-.39,1.08-.59,1.18c-.49.39-1.97,2.26-2.02,4.03,0,.15,0,.3.05.49.34,1.57,1.13,4.18,1.13,4.18.05.2.2.25.39.25l.3-.05c-.2.54-.59,1.53-.74,1.62-.2.2-1.43.98-2.41,3.79-.2-.1-.54-.2-.93-.2-.54,0-1.18.2-1.87.84-.89.84-1.18,1.08-1.23,1.08,0,.05-.05.05-.05.05h0l-.05.05c-.34-.79-.44-1.53-.44-2.17-.05-3.44,3.89-5.02,3.89-5.02.15-.1.25-.3.2-.49-.1-.2-.3-.25-.44-.2,0,0-1.18.49-2.31,1.53-.05-.84-.15-2.26-.2-3.4.1-.2.69-2.02,1.48-3.94.79-2.02,1.97-4.18,2.46-4.28.2-.1.3-.3.2-.49-.05-.2-.3-.3-.44-.2-1.13.54-2.41,3.4-3.3,5.71.3-1.62.79-3.89,1.28-5.95.05-.2-.1-.34-.3-.39s-.34.05-.39.25c-.79,3.44-1.62,7.38-1.67,8.27-.05.2-.05.44-.05.69,0,1.57.2,4.18.25,4.43-.74.84-1.33,1.97-1.33,3.44,0,.79.15,1.67.59,2.66,0,.05.05.1.05.15-.54.74-.54.79-.69,1.08-.1.39-.59,2.31-.59,2.8h0c0,.1,0,.34-.05.49-.05.1-.05.2-.05.25h0s-.54.34-.74.44c-.2-.34-.69-1.03-1.23-1.23-.1-.05-.3-.05-.44-.05-.2,0-.64.05-.69.54,0,.05,0,.15.05.2-.2.05-.54.1-.59.64,0,.34.2.54.54.79l1.03.93s.98.84,1.72,1.03c.15.05.39.05.59.05.39,0,.84-.1,1.18-.3l-.1.3c-.3.44-.59,1.38-.59,1.92,0,.1,0,.25.1.39,0-.1.1.74.89.84.3,0,.54-.2.74-.49l.15-.2c-.3.98-.59,1.77-.79,2.17-.74,1.62-1.72,2.8-1.77,4.08M172.32,85.08c-.2-.05-.39.05-.44.25s-.49.74-.54,1.67c0,.44-.44.44-.54.44-.15-.05-.2-.2-.25-.64,0-.34.05-.74.1-.93s-.1-.34-.3-.39-.34.1-.39.3c0,.15-.1.59-.1,1.03,0,.34.1.84.39,1.13,0,.15-.05.54-.15.98-.05.05-.1.1-.15.15-.3.44-.84.59-1.28.59-.2,0-.34,0-.44-.05-.44-.1-1.43-.89-1.43-.89l-1.08-.93c-.1-.1-.15-.15-.2-.2.15-.05.44-.1.59-.59v-.15s.15,0,.2.05c.05-.05.93,1.03.98,1.08.2.2.2.15.3.2.54-.05,1.08-.54,1.28-.69.34-.39.3-.89.34-1.28h0c0-.2.49-2.31.54-2.51.15-.34,0-.1,1.03-1.48.05-.05.3-.25,1.28-1.18.54-.54,1.03-.64,1.38-.64.3,0,.54.1.69.2-.44,1.43-.89,3.3-1.18,5.81,0,0-.59,2.02-1.18,4.13-.05,0-.05.05-.1.05l-.69,1.13-.64.89c-.15.2-.2.2-.2.2-.05.05-.05,0-.15-.2-.1-.1-.1-.25-.15-.25l-.1-.1h.1c-.05-.25.34-1.33.49-1.57.2-.34.25-.84.39-1.48.05-.44.15-.89.15-1.13.3-.05,1.03-.25,1.08-1.13.05-.74.34-.98.54-1.48.1-.15-.05-.34-.2-.39M169.22,121.89l-10.04-3.4v-2.07l10.04,3.3v2.17ZM189.35,116.28l-19.44,5.71v-2.31l19.44-5.51v2.12ZM176.8,115.54c.2-.05.3-.2.25-.39l-.44-3,1.67-.39,9.94,2.07-18.65,5.31-9.5-3.1,9.64-2.26-.59,3.1c-.05.2.05.34.25.39.2.05.34-.05.44-.2l1.33-3.59,4.18-.98,1.03,2.9c.1.1.3.2.44.15M171.49,112.59l2.02-5.12,1.57,4.28-3.59.84ZM175.82,111.6l-.05.05-1.92-5.27c-.05-.15-.2-.2-.34-.2s-.3.1-.34.2l-2.56,6.45h-.05l.64-4.58v-.05c.15-.3.39-.84.54-1.43.2-.84.79-2.95,1.38-3.89.34-.54.93-.74,1.28-.84l.05.89,1.38,8.66ZM181.57,84.93c-2.51,4.63-6.05,8.81-6.35,9.55-.1.39-.25.84-.25,1.33,0,.69.15,1.67.54,3.3.1.34.1.74.1,1.03,0,.74-.2,1.43-.44,1.92l-.05-.49c0-.2-.2-.3-.39-.3-.05,0-1.33.1-2.17,1.28-.69,1.08-1.28,3.2-1.48,4.13-.1.44-.3.89-.44,1.18-.15-.15-.2-.39-.2-.59h0l.05-.1-.3-4.67-.15-.25c-.25-.15-.39-.34-.49-.54,0-.05-.05-.05-.05-.05,0,0,0-.15-.1-.2-.1-.34-.15-.74-.15-1.13s.05-.79.05-1.18c-.05-.89.89-2.12,1.62-3.69.34-.74.93-2.61,1.48-4.48.69-2.17,1.28-4.33,1.28-4.33.34-2.71.79-4.63,1.28-6.05,1.03-3,2.07-3.59,2.36-3.89.54-.49,1.03-2.21,1.03-2.21l6.59-.93s.39-.1.89-.3l-2.02,4.33-.05.2v.44c0,1.48-.59,3.35-1.48,5.22-.25.54-.49.98-.74,1.48M188.51,90.25s-2.71,4.13-3.05,4.67-.34,1.33-.39,1.92c0,.3,0,.59.05.69,0,.3-.25,1.13-.25,1.13-.05.15-.05.3-.05.39,0,.79.44,1.62.89,2.17.49.59,1.08.98,1.23,1.38v.1c.05.3-.44.98-1.13,1.28-.39.2-1.28.3-2.26.3-.74,0-1.53-.05-2.17-.15-.98-.15-1.03-.84-1.03-1.28v-.2s.64-2.07.79-2.36c.1-.3.1-.74.1-1.18,0-.39,0-.79-.05-1.08-.05-.05-.05-.1-.05-.1,0-.54.64-2.07,1.23-2.8.49-.74.54-1.87.54-2.76,0-.49-.05-.93-.05-1.08-.05-.05-.05-.3-.05-.59,0-1.57.05-5.71.05-6.54,2.85-.64,5.36-.98,7.28-1.18-.39,5.46-1.67,7.23-1.62,7.28M190.97,103.29l-.74-2.76c-.59-1.57-.79-2.95-.79-4.18,0-2.46.89-4.18,1.13-4.87.34-.93,2.66-5.31,2.66-5.31l1.38-2.95.2-.89c.05-.2.1-.39.15-.74.39-1.57.89-4.28.93-5.31v-.25c0-1.18-.49-3.3-.84-4.28-.2-.44-.25-.84-.25-1.28,0-.34.05-.64.1-1.03.05-.64.93-3.89,1.13-4.82l4.33-.2s1.48-.15,2.46-.79c.15-.1.2-.34.1-.49-.1-.15-.34-.2-.49-.1-.79.49-2.17.69-2.17.69l-6.4.34c-.2,0-.34.2-.34.39s.15.34.34.34h0l1.38-.05c-.2,1.03-.98,3.99-1.08,4.67-.05.34-.1.69-.1,1.13s.1.98.3,1.53c.34.84.79,3,.79,4.03v.1c-.05,1.03-.54,3.79-.89,5.31-.05.2-.1.39-.15.54-.49,0-1.77,0-3.59.2h-.1c-1.87.15-4.38.49-7.23,1.13.79-1.72,1.33-3.49,1.33-4.97,0-.15-.05-.3-.05-.44l2.17-4.67v-.05c.05-.1.05-.15.05-.2.54-.25,1.08-.54,1.43-.98.89-1.03,3.3-4.97,3.3-5.02l.05-.05c.2-.34.44-.69.64-1.08l.1-.2h.05c.05-.2.15-.39.2-.59.3-.69.79-1.72,1.23-2.66.05.1.79-.39.93-.39,2.66-1.03,3.49-4.38,3.54-4.43v-.25c1.33,1.57,4.63,5.07,8.37,6.15-3.3,3.99-5.81,8.32-7.68,12.4-.1-1.33-.15-2.46-.15-3.2,0-.69.05-1.03.05-1.03,0-.2-.15-.34-.34-.39-.2,0-.34.15-.39.34,0,0-.05.39-.05,1.03,0,.98.05,2.51.3,4.38l.05.05c-4.63,10.73-5.22,20.03-5.22,20.08s0,.1.05.1c0,.1-.05.2-.05.3,0,.98.79,1.92,2.95,2.56h.05s.05-.05.1-.05c-.15.79-.34,1.53-.54,1.92-.84,1.97-1.43,3.49-1.43,4.43h0c0,.3-.05.79-.2,1.28-.05-.05-.1-.05-.15-.05-1.33-.34-1.57-.39-2.9-4.43M193.73,97.33s1.03-1.53,1.18-1.62c.44-.34,1.18-.93,2.12-1.67-.15,1.08-.44,3.54-.79,5.51-.05,0-.05-.05-.1-.05-2.07-.64-2.51-1.38-2.51-1.92.05-.05.1-.15.1-.25M201.45,111.9h0v.05c0,.39-.84,1.28-1.13,1.43-.25.2-1.03.49-1.48.79-.1.05-.3.1-.59.1-.25,0-.54-.05-.79-.05-.39,0-1.48-.39-1.48-.39h-.2s-.79.15-1.43.15c-.1,0-.25,0-.34-.05-.39.05-.54-.59-.59-1.67v-.2c0-.25.05-.54.1-.79.2-.59.44-1.13.64-1.48.3-.64.79-2.56.79-3.44h-.3.3c0-.64.59-2.21,1.38-4.13.89-2.12,1.53-8.66,1.53-8.66v-.15c3.4-2.76,8.32-6.79,9.6-8.56.15-.25.34-.49.59-.69v.2c0,7.77-7.53,18.3-8.27,19.78-.3.54-.34,1.08-.34,1.72,0,.93.2,1.92.34,2.51.1.44.2.69.2.69-.05.2,1.43,2.36,1.48,2.85M214.49,108.75h-.69c-1.33-.05-1.48,0-2.9-.1-.69-.05-1.43-.05-2.17-.1,0,0-.05,0-.05-.05-2.26-.49-5.31-3.89-5.36-3.89-.1-.15-.34-.15-.49-.05-.15.15-.15.34,0,.49.1.1,1.92,2.17,3.94,3.35-1.08-.05-2.07-.1-2.95-.15-.98-.1-1.82-.15-2.41-.2-.3-.05-.54-.05-.69-.1-.1,0-.15,0-.2-.05-.05,0-.1-.05-.15-.05-.1-.59-.25-1.33-.25-2.02,0-.54.05-1.08.25-1.38.44-.89,3.84-5.76,6.2-11.22,1.28,1.43,2.51,2.8,3.69,4.08,0,.05-.05.15-.05.15.15,7.33,3.44,10.19,5.46,11.27-.49,0-.84,0-1.18,0M217.3,108.65h-.1s-5.81-1.03-6.3-10.53c2.02,2.17,3.54,3.74,3.54,3.74.05.05.15.1.25.1s.2-.05.25-.1c.15-.15.15-.34,0-.49,0,0-4.18-4.38-7.97-8.66-.05-.05-.1-.05-.15-.1,1.13-2.76,1.92-5.61,1.92-8.22v-.74c1.18-.74,2.71-.89,3.54-.89.49,0,.79.05.79.05.2,0,.39-.15.39-.3.05-.2-.1-.34-.3-.39,0,0-.34-.05-.89-.05-.98,0-2.71.15-4.18,1.13-.44.3-.89.69-1.23,1.18-1.18,1.62-6.3,5.9-9.69,8.66-1.13.89-2.07,1.62-2.61,2.07-.1.1-.2.2-.3.34,0,.05-.15.15-.3.3.54-4.67,3.05-19.83,13.38-32.18.39.05.79.1,1.18.1h.49l-2.56,10.09c-.05.2.1.39.25.44.2.05.34-.05.39-.25l2.66-10.43c.74-.15,1.43-.44,2.12-.93.93-.64,4.18-2.21,5.17-3.94l2.95-2.41s.64-.54,1.28-1.38c1.33,3.4,2.17,8.12,2.9,14.52.25,2.26.34,4.43.34,6.54,0,7.82-1.48,14.66-2.56,18.9-.15-4.18-.84-11.27-.84-16.19,0-1.57.05-2.9.2-3.84.3-1.67.39-3.35.39-4.77,0-2.85-.39-4.92-.39-4.92-.05-.2-.2-.34-.39-.3-.2.05-.34.25-.3.44,0,0,.39,2.02.39,4.77,0,1.43-.1,3-.39,4.67-.2.98-.25,2.36-.25,3.94,0,5.71.89,14.22.89,17.81,0,.49,0,.89-.05,1.13v.05c-.2.93-.3,1.92-.3,2.95.05,3.1.84,6.25,2.21,7.58-1.33.15-3.69.39-5.86.49" />
      <path class="cls-1"
        d="M162.68,48.32c.1,0,.2-.05.3-.15,0,0,.3-.39.64-.69v.05l.15.2c.1.15.34.2.49.1s.2-.34.1-.44l-.15-.2s-.05-.05-.05-.05c0-.05.1-.05.1,0h.05c.15.1.34.1.49-.05.1-.15.1-.34-.05-.49-.15-.15-.3-.2-.49-.2-1.03.1-1.82,1.43-1.87,1.43-.1.15-.1.39.1.49h.2" />
      <path class="cls-1"
        d="M162.92,76.52c-.15.1-.15.34-.05.49.1.05.2.1.3.1s.15-.05.25-.1l.3-.25c.25.1.49.15.54.2.2.05.34-.1.39-.25.05-.2-.05-.39-.25-.44,0,0-1.18-.39-1.28-.64-.1-.15-.34-.2-.49-.1-.2.1-.25.3-.1.49s.3.34.49.49h-.1Z" />
      <path class="cls-1"
        d="M153.43,34.94c-.1.2-.05.39.1.49l.59.34-.15.25c-.15.15-.1.39.05.49.2.1.39.05.49-.1l.15-.3.64.44s.1.05.2.05.25-.05.3-.15c.1-.15.05-.34-.1-.49l-1.82-1.18c-.1-.05-.34,0-.44.15" />
      <path class="cls-1"
        d="M180.15,34.84c-.2,0-.34-.05-.39-.05,0-.05-.05-.05-.05-.05-.15-.15-.34-.15-.44,0,0,.05-.1,0-.15.25.05.39.34.59,1.03.59h0c.2,0,.34-.15.34-.34,0-.2-.15-.34-.34-.39" />
      <path class="cls-1"
        d="M178.42,32.38c-.05.2.1.39.3.39h.05c.2,0,.34-.1.39-.3v-.15c.25.05.54.1.84.1.2,0,.34-.15.34-.34s-.15-.34-.34-.34c-.98,0-1.97-.64-1.97-.64-.2-.1-.39-.05-.49.1s-.05.39.1.49c0,0,.3.2.79.39v.3Z" />
      <path class="cls-1"
        d="M179.85,36.02c-.54-.05-.89-.34-.89-.34-.15-.15-.34-.1-.49.05s-.1.34.05.49c.05,0,.54.49,1.33.49.2,0,.34-.15.34-.34.05-.15-.15-.34-.34-.34" />
      <path class="cls-1"
        d="M210.41,52.5c.1,0,.2-.05.25-.15l2.8-2.8c.15-.1.15-.34,0-.49-.1-.15-.34-.15-.49,0l-2.8,2.85c-.15.15-.15.34,0,.49.1.05.15.1.25.1" />
    </g>
  </g>
</svg>